<svg xmlns="http://www.w3.org/2000/svg" xmlns:xlink="http://www.w3.org/1999/xlink" width="77" height="94" viewBox="0 0 77 94">
  <defs>
    <clipPath id="clip-path">
      <rect id="Rectangle_142" data-name="Rectangle 142" width="77" height="94" fill="#2e842e"/>
    </clipPath>
  </defs>
  <g id="Group_287" data-name="Group 287" clip-path="url(#clip-path)">
    <path id="Path_282" data-name="Path 282" d="M75.021,0H2.942A2.952,2.952,0,0,0,0,2.942V90.61a2.936,2.936,0,0,0,2.942,2.923H75.021a2.919,2.919,0,0,0,2.923-2.915V2.942A2.935,2.935,0,0,0,75.021,0M35.075,78.022H15.589a2.923,2.923,0,0,1,0-5.846H35.075a2.923,2.923,0,0,1,0,5.846m0-21.435H15.589a2.923,2.923,0,1,1,0-5.846H35.075a2.923,2.923,0,0,1,0,5.846m7.872-23.461a2.923,2.923,0,0,1-5.846,0V17.986a9.217,9.217,0,0,1,18.434,0V33.126a2.923,2.923,0,0,1-5.846,0V29.014H42.947ZM64.421,72.371l-9.587,9.587a2.828,2.828,0,0,1-2.066.858,2.893,2.893,0,0,1-2.066-.858l-4.053-4.053c-2.654-2.75,1.382-6.823,4.131-4.131l1.988,1.987L60.29,68.24C63.069,65.585,67.1,69.629,64.421,72.371Zm0-21.435-9.587,9.587a2.828,2.828,0,0,1-2.066.858,2.893,2.893,0,0,1-2.066-.858L46.649,56.47c-2.654-2.75,1.382-6.823,4.131-4.131l1.988,1.987,7.521-7.521C63.069,44.15,67.1,48.194,64.421,50.936Z" transform="translate(0 0.604)" fill="#2e842e"/>
    <path id="Path_283" data-name="Path 283" d="M199.592,69.028a3.371,3.371,0,0,0-6.742,0v5.183h6.742Z" transform="translate(-149.903 -50.439)" fill="#2e842e"/>
  </g>
</svg>
