<svg xmlns="http://www.w3.org/2000/svg" xmlns:xlink="http://www.w3.org/1999/xlink" width="89.381" height="102.15" viewBox="0 0 89.381 102.15">
  <defs>
    <clipPath id="clip-path">
      <rect id="Rectangle_140" data-name="Rectangle 140" width="89.381" height="102.15" transform="translate(0 0)" fill="#2e842e"/>
    </clipPath>
  </defs>
  <g id="Group_432" data-name="Group 432" transform="translate(0 0.269)">
    <g id="Group_283" data-name="Group 283" transform="translate(0 -0.269)" clip-path="url(#clip-path)">
      <path id="Path_276" data-name="Path 276" d="M11.817,328.516H5.065A5.064,5.064,0,0,1,0,323.452V293.065A5.065,5.065,0,0,1,5.065,288h6.753a5.065,5.065,0,0,1,5.065,5.065v30.387a5.064,5.064,0,0,1-5.065,5.064" transform="translate(0 -226.366)" fill="#2e842e"/>
      <path id="Path_277" data-name="Path 277" d="M235.817,252.775h-6.753A5.064,5.064,0,0,1,224,247.71V197.065A5.064,5.064,0,0,1,229.065,192h6.753a5.064,5.064,0,0,1,5.065,5.064V247.71a5.064,5.064,0,0,1-5.065,5.064" transform="translate(-176.731 -150.624)" fill="#2e842e"/>
      <path id="Path_278" data-name="Path 278" d="M347.817,164.409h-6.753A5.064,5.064,0,0,1,336,159.344V85.065A5.064,5.064,0,0,1,341.064,80h6.753a5.064,5.064,0,0,1,5.065,5.065v74.28a5.064,5.064,0,0,1-5.065,5.065" transform="translate(-265.096 -62.259)" fill="#2e842e"/>
      <path id="Path_279" data-name="Path 279" d="M123.817,101.291h-6.753A5.064,5.064,0,0,1,112,96.226V5.065A5.064,5.064,0,0,1,117.065,0h6.753a5.064,5.064,0,0,1,5.065,5.065V96.226a5.064,5.064,0,0,1-5.065,5.065" transform="translate(-88.366 0.859)" fill="#2e842e"/>
    </g>
  </g>
</svg>
