<svg id="Group_348" data-name="Group 348" xmlns="http://www.w3.org/2000/svg" xmlns:xlink="http://www.w3.org/1999/xlink" width="100" height="100" viewBox="0 0 100 100">
  <defs>
    <clipPath id="clip-path">
      <rect id="Rectangle_83" data-name="Rectangle 83" width="100" height="100" fill="none"/>
    </clipPath>
    <clipPath id="clip-path-2">
      <circle id="Ellipse_6" data-name="Ellipse 6" cx="50" cy="50" r="50" fill="none"/>
    </clipPath>
    <clipPath id="clip-path-3">
      <path id="Path_195" data-name="Path 195" d="M37,61V71.9c0,4-4.7,5.2-7.1,5.8-4.882,1.284-12.9,3.353-18.01,4.669a50,50,0,0,0,76.22,0C83,81.053,74.982,78.984,70.1,77.7c-2.4-.6-7.1-1.8-7.1-5.8V61Z" fill="none"/>
    </clipPath>
    <clipPath id="clip-path-4">
      <path id="Path_197" data-name="Path 197" d="M29.9,77.7c-4.882,1.284-12.9,3.353-18.01,4.669a50,50,0,0,0,76.22,0C83,81.053,74.982,78.984,70.1,77.7c-.326-.082-.695-.174-1.089-.284C65.868,81.471,58.842,89,50,89S34.132,81.471,30.989,77.416c-.394.11-.763.2-1.089.284M37,61v4.479A29.962,29.962,0,0,1,42.99,61Zm20.01,0A29.962,29.962,0,0,1,63,65.479V61Z" fill="none"/>
    </clipPath>
    <clipPath id="clip-path-6">
      <path id="Path_206" data-name="Path 206" d="M39.4,13C23.8,19.1,24,41,24,41v4.3c2.4-.9,7.2-3.5,12-11.9,6.8-12,17.2-6.5,20.5-2.6a.868.868,0,0,0,.9.2s8.6-3.7,12,3.8c2.5,5.5,3.9,7.1,6.5,8.8V35.7C76,20.2,66.5,20,66.1,20s-.7,0-.9-.6c-.691-2.224-6.324-8.389-15.949-8.39A26.962,26.962,0,0,0,39.4,13" fill="none"/>
    </clipPath>
  </defs>
  <g id="Group_193" data-name="Group 193">
    <g id="Group_192" data-name="Group 192" clip-path="url(#clip-path)">
      <path id="Path_191" data-name="Path 191" d="M50,0A50,50,0,1,1,0,50,50,50,0,0,1,50,0" fill="#f5eee5"/>
    </g>
  </g>
  <g id="Group_195" data-name="Group 195">
    <g id="Group_194" data-name="Group 194" clip-path="url(#clip-path-2)">
      <rect id="Rectangle_84" data-name="Rectangle 84" width="31" height="43" transform="translate(24 41)" fill="#d98c21"/>
      <rect id="Rectangle_85" data-name="Rectangle 85" width="31" height="47" transform="translate(45 37)" fill="#cc751f"/>
      <path id="Path_192" data-name="Path 192" d="M63,71.9c0,4,4.7,5.2,7.1,5.8,7.6,2,22.8,5.9,22.8,5.9a12.147,12.147,0,0,1,7.1,6.6V100H0V90.2a11.873,11.873,0,0,1,7.1-6.6s15.2-3.9,22.8-5.9c2.4-.6,7.1-1.8,7.1-5.8V61H63Z" fill="#e6c19c"/>
    </g>
  </g>
  <g id="Group_197" data-name="Group 197">
    <g id="Group_196" data-name="Group 196" clip-path="url(#clip-path-3)">
      <path id="Path_193" data-name="Path 193" d="M50.2,11h.2c3.3,0,8.2.2,11.4,2a17.271,17.271,0,0,1,8.5,12.1c2.4,13.7-2.1,35.4-6.3,42.4-4,6.7-9.8,9.2-13.5,9.4h-.6c-3.7-.2-9.5-2.7-13.5-9.4-4.2-7-8.7-28.7-6.3-42.4A17.271,17.271,0,0,1,38.6,13c3.2-1.8,8.1-2,11.4-2Z" fill="#d4b08c"/>
      <path id="Path_194" data-name="Path 194" d="M0,58H100v42H0ZM50,89c12.1,0,20.8-14.1,20.8-14.1S60.9,59,50,59,29.2,74.9,29.2,74.9,37.9,89,50,89" fill="#6b363e"/>
    </g>
  </g>
  <g id="Group_199" data-name="Group 199">
    <g id="Group_198" data-name="Group 198" clip-path="url(#clip-path-4)">
      <path id="Path_196" data-name="Path 196" d="M72.4,77.7C71.1,87.7,63.1,95,63.1,95s-8.2-7-10.2-7.6c12.7-7.6,17.1-12,17.1-12s3.6-7.7,2.4,2.3m-44.7,0C29,87.8,37,95,37,95s8.2-7,10.2-7.6c-12.7-7.6-17.1-12-17.1-12s-3.6-7.7-2.4,2.3" fill="#fff"/>
    </g>
  </g>
  <g id="Group_201" data-name="Group 201">
    <g id="Group_200" data-name="Group 200" clip-path="url(#clip-path)">
      <path id="Path_198" data-name="Path 198" d="M50,16c19.1,0,20.7,13.8,20.8,15.1,1.1,11.9-3,28.1-6.8,33.7a18.319,18.319,0,0,1-13.5,8.3h-.3L50,73a18.314,18.314,0,0,1-13.6-8.3c-3.8-5.6-7.9-21.8-6.8-33.8C29.7,29.7,30.9,16,50,16" fill="#f2cea5"/>
      <path id="Path_199" data-name="Path 199" d="M45.8,61c-.2,0-.4.4-.3.7.9,2.1,2.3,3.3,4.2,3.4,2,.2,4.1-1.2,5.2-3.4.1-.3,0-.7-.3-.7Z" fill="#a3705f"/>
      <path id="Path_200" data-name="Path 200" d="M59,43a2,2,0,1,1-2,2,2,2,0,0,1,2-2" fill="#262626"/>
      <path id="Path_201" data-name="Path 201" d="M41,43a2,2,0,1,1-2,2,2,2,0,0,1,2-2" fill="#262626"/>
      <path id="Path_202" data-name="Path 202" d="M35.5,40.2S36.9,39,40.4,39c2.5,0,4.9.7,6.4,2.6" fill="none" stroke="#cc9872" stroke-width="2"/>
      <path id="Path_203" data-name="Path 203" d="M64.4,40.2S63,39,59.5,39s-6.9,1.5-7.7,5.7a12.638,12.638,0,0,0,2.1,10.1" fill="none" stroke="#bb8660" stroke-width="2"/>
      <path id="Path_204" data-name="Path 204" d="M24,45.3c2.4-.9,7.2-3.5,12-11.9,6.8-12,17.2-6.5,20.5-2.6a.868.868,0,0,0,.9.2s8.6-3.7,12,3.8c2.5,5.5,3.9,7.1,6.5,8.8V35.7C76,20.2,66.5,20,66.1,20s-.7,0-.9-.6C64.3,16.5,55,6.9,39.4,13S24,41,24,41Z" fill="#e6a422"/>
    </g>
  </g>
  <g id="Group_203" data-name="Group 203">
    <g id="Group_202" data-name="Group 202" clip-path="url(#clip-path-6)">
      <path id="Path_205" data-name="Path 205" d="M56.8,31.6s3-7.5,9-12.1S77,26.9,77,26.9l.3,19.6Z" fill="#d98c21"/>
    </g>
  </g>
</svg>
