<svg xmlns="http://www.w3.org/2000/svg" width="96.302" height="96.302" viewBox="0 0 96.302 96.302">
  <g id="vuesax_bold_setting-2" data-name="vuesax/bold/setting-2" opacity="0.998">
    <rect id="vuesax_bold_setting-2-2" data-name="vuesax/bold/setting-2" width="96.302" height="96.302" fill="none" opacity="0.3"/>
    <g id="vuesax_bold_setting-2-3" data-name="vuesax/bold/setting-2">
      <g id="setting-2">
        <path id="Vector" d="M92.312,41.339v8.5a9,9,0,0,1-8.765,9.177c-8.35,0-11.764,6.182-7.566,13.765a9.41,9.41,0,0,1-3.229,12.51L64.77,90.074a7.512,7.512,0,0,1-10.518-2.9l-.507-.918c-4.2-7.583-11.026-7.583-15.178,0l-.507.918a7.512,7.512,0,0,1-10.518,2.9L19.56,85.292a9.4,9.4,0,0,1-3.229-12.51c4.2-7.583.784-13.765-7.566-13.765A9.005,9.005,0,0,1,0,49.84v-8.5a9,9,0,0,1,8.765-9.177c8.35,0,11.764-6.182,7.566-13.717A9.457,9.457,0,0,1,19.56,5.887l7.981-4.782A7.39,7.39,0,0,1,37.967,4l.507.918c4.2,7.583,11.026,7.583,15.178,0L54.16,4a7.512,7.512,0,0,1,10.518-2.9l7.981,4.782A9.4,9.4,0,0,1,75.888,18.4C71.737,25.98,75.15,32.162,83.5,32.162a9.074,9.074,0,0,1,8.811,9.177ZM61.126,45.59c0-8.646-6.735-15.7-14.993-15.7S31.14,36.944,31.14,45.59s6.735,15.7,14.993,15.7S61.126,54.235,61.126,45.59Z" transform="translate(2 2.561)" fill="#2e842e"/>
        <path id="Vector-2" data-name="Vector" d="M0,0H96.3V96.3H0Z" transform="translate(96.302 96.302) rotate(180)" fill="none" opacity="0"/>
      </g>
    </g>
  </g>
</svg>
