<svg xmlns="http://www.w3.org/2000/svg" width="1818.006" height="277.548" viewBox="0 0 1818.006 277.548" >
  <g id="bg-shaes" transform="translate(-156.512 -70.713)" opacity="0.15" >
    <g id="Group_67" data-name="Group 67" transform="translate(985.112 70.713)">
      <path id="Path_15" data-name="Path 15" d="M1564.973,150.56a2.321,2.321,0,0,1-1.717-.736c-7.421-7.973-15.333-15.64-23.49-22.877-4.048,1.043-7.237,1.963-10.61,2.944-4.968,1.411-10.059,2.883-18.768,5.029a2.343,2.343,0,0,1-2.576-1.1,2.4,2.4,0,0,1,.307-2.76c10.181-10.856,15.333-17.234,21.221-24.656.675-.859,1.349-1.656,2.024-2.515-1.349-3.987-5.7-16.805-8.832-24.226a2.349,2.349,0,0,1,.613-2.637,2.217,2.217,0,0,1,2.7-.245,148.629,148.629,0,0,0,24.533,11.408l18.768-16.866a2.4,2.4,0,0,1,2.76-.307,2.308,2.308,0,0,1,1.1,2.515l-5.4,24.717a162.489,162.489,0,0,1,26.618,8.648,2.274,2.274,0,0,1,1.411,2.269,2.388,2.388,0,0,1-1.595,2.147c-9.568,3.189-19.381,6.072-29.194,8.525l2.331,28.336a2.409,2.409,0,0,1-1.411,2.331C1565.587,150.5,1565.28,150.56,1564.973,150.56Zm-24.594-28.52a2.13,2.13,0,0,1,1.533.613c6.93,6.072,13.677,12.512,20.117,19.2l-1.963-23.736a2.284,2.284,0,0,1,1.779-2.453c8.219-2.024,16.5-4.293,24.656-6.869a163.776,163.776,0,0,0-22.141-6.563,2.155,2.155,0,0,1-1.472-1.043,2.587,2.587,0,0,1-.307-1.779l4.355-19.872-14.413,12.941a2.465,2.465,0,0,1-2.331.491,149.6,149.6,0,0,1-20.853-9.016c3.312,8.709,6.747,19.136,6.931,19.626a2.243,2.243,0,0,1-.429,2.208c-.981,1.227-1.9,2.392-2.821,3.5-4.845,6.072-9.139,11.469-16.13,19.136,4.355-1.165,7.667-2.085,10.917-3.067,3.741-1.1,7.237-2.085,11.96-3.251A2.3,2.3,0,0,1,1540.379,122.04Z" transform="translate(-1507.513 -70.713)" fill="#EAA421"/>
    </g>
    <g id="Group_71" data-name="Group 71" transform="translate(1055.431 185.652)">
      <g id="Group_68" data-name="Group 68" transform="translate(0 39.469)">
        <path id="Path_16" data-name="Path 16" d="M1661.071,342.483a20.181,20.181,0,0,0-.491-6.072c-.307-1.043-1.656-.8-2.085-.061a13.772,13.772,0,0,0-1.349,3.557,14.644,14.644,0,0,0-.981,4.232c-.184-.245-.859-.675-1.1-.92-.981-.981-1.779-2.085-2.637-3.128a54.421,54.421,0,0,1-5.643-9.2.554.554,0,0,0-.061-.307,9.973,9.973,0,0,0-1.288-2.7c-.245-.552-.429-1.1-.675-1.656a2.056,2.056,0,0,0-2.269-1.349,11.782,11.782,0,0,0-10.427-1.9c-6.317,2.024-8.587,9.077-9.445,15.026-.981,6.931-.859,15.21,5.581,19.565,6.194,4.171,13.861.368,16.866-5.827a25.926,25.926,0,0,0,2.147-10.365,33.5,33.5,0,0,0,5.029,5.888c2.024,1.84,5.52,3.005,7.544.491C1661.01,346.224,1661.01,344.139,1661.071,342.483Zm-20.608,6.195c-1.165,2.637-3.557,5.336-6.685,5.152-3.128-.123-5.213-3.251-5.888-6.011-.8-3.128-.429-6.563.061-9.691.429-2.821,1.043-5.827,2.821-8.157,2.883-3.8,6.869-2.944,10.365-.981C1643.039,335.062,1643.039,342.973,1640.464,348.677Z" transform="translate(-1622.165 -322.47)" fill="#EAA421"/>
      </g>
      <g id="Group_69" data-name="Group 69" transform="translate(25.938 0)">
        <path id="Path_17" data-name="Path 17" d="M1690.672,287.3c-4.232-3.005-8.893-1.595-12.021,1.656v-.123a71.914,71.914,0,0,0-.981-12.573,81.927,81.927,0,0,0-2.821-11.592c-.981-3.005-2.576-5.765-5.888-6.5a2.225,2.225,0,0,0-2.392,1.288c-4.171,7.728-1.349,16.5,1.472,24.165,3.189,8.525,5.827,17.541,10.181,25.576,1.717,3.128,4.109,7.237,8.28,6.747,3.68-.429,6.195-3.987,7.36-7.176C1696.376,301.959,1697.541,292.085,1690.672,287.3Zm-21.1-23.736c1.227,1.656,1.717,4.907,2.147,6.256A73.127,73.127,0,0,1,1673.805,280a82.359,82.359,0,0,1,.8,8.648c-.552-1.411-1.042-2.76-1.595-4.171C1670.371,277.917,1666.936,270.5,1669.573,263.565Zm19.872,43.239c-.491,1.288-1.472,3.864-3.005,4.171-1.656.368-2.821-2.147-3.557-3.373a82.788,82.788,0,0,1-4.232-8.4c1.472-2.637,2.085-5.949,4.784-7.605,3.128-1.9,6.256.429,7.176,3.557C1691.653,298.708,1690.672,303.37,1689.445,306.8Z" transform="translate(-1664.456 -258.117)" fill="#EAA421"/>
      </g>
      <g id="Group_70" data-name="Group 70" transform="translate(60.255 12.212)">
        <path id="Path_18" data-name="Path 18" d="M1743.955,296.84a1.735,1.735,0,0,0-3.312.368c-.368,3.5-2.637,7.237-6.562,7.36-3.8.123-6.685-3.557-7.912-6.808a14.073,14.073,0,0,1-.061-9.384,11.637,11.637,0,0,1,2.331-4.048c.429-.552,1.472-1.779,2.331-1.656.736.123.245.429.061,1.043a1.532,1.532,0,0,0,.736,1.963c2.944.981,5.029-2.453,3.8-4.968-1.411-2.944-5.091-3.312-7.728-1.84-5.581,3.067-7.789,10.794-7.115,16.744.736,6.44,5.275,13.554,12.205,14.352C1739.968,310.824,1746.776,304.2,1743.955,296.84Z" transform="translate(-1720.408 -278.029)" fill="#EAA421"/>
      </g>
    </g>
    <g id="Group_75" data-name="Group 75" transform="translate(321.116 175.902)">
      <g id="Group_72" data-name="Group 72" transform="translate(0 33.944)">
        <path id="Path_19" data-name="Path 19" d="M463.6,323.591a20.214,20.214,0,0,0,.981-6.011c-.061-1.043-1.411-1.165-1.963-.552a12.32,12.32,0,0,0-2.147,3.128,19.09,19.09,0,0,0-1.963,3.864,14.161,14.161,0,0,0-.859-1.165,28.979,28.979,0,0,1-1.779-3.68,50.307,50.307,0,0,1-3.251-10.3v-.307a11.9,11.9,0,0,0-.552-2.944c-.061-.613-.184-1.165-.245-1.779a2.147,2.147,0,0,0-1.9-1.9,11.938,11.938,0,0,0-9.69-4.355c-6.624.491-10.549,6.808-12.757,12.328-2.637,6.5-4.477,14.6.8,20.3,5.029,5.52,13.37,3.619,17.786-1.656a25.548,25.548,0,0,0,4.539-9.568,33.375,33.375,0,0,0,3.5,6.931c1.533,2.269,4.661,4.232,7.237,2.269C462.678,327.209,463.168,325.247,463.6,323.591Zm-21.466,1.1c-1.779,2.269-4.723,4.293-7.728,3.435s-4.232-4.416-4.232-7.237c0-3.251,1.165-6.44,2.392-9.384,1.043-2.637,2.392-5.4,4.661-7.237,3.68-3.005,7.36-1.227,10.242,1.533C447.9,312.06,445.934,319.788,442.131,324.695Z" transform="translate(-424.892 -297.563)" fill="#EAA421"/>
      </g>
      <g id="Group_73" data-name="Group 73" transform="translate(37.074 0)">
        <path id="Path_20" data-name="Path 20" d="M507.089,275.94c-3.435-3.925-8.28-3.619-12.082-1.288v-.123a65.106,65.106,0,0,0,2.024-12.45,77.858,77.858,0,0,0,.061-11.96c-.245-3.189-1.1-6.195-4.171-7.728a2.4,2.4,0,0,0-2.637.675c-5.888,6.5-5.275,15.7-4.355,23.8,1.043,9.077,1.472,18.461,3.8,27.293.92,3.435,2.269,7.973,6.44,8.525,3.68.491,6.992-2.392,8.893-5.213C509.113,291.519,512.608,282.257,507.089,275.94Zm-14.842-28.09c.8,1.9.491,5.213.552,6.624a72.9,72.9,0,0,1-.368,10.365c-.307,2.883-.736,5.7-1.288,8.587l-.552-4.416C489.67,261.956,488.076,253.922,492.246,247.85Zm8.954,46.735c-.736,1.1-2.331,3.373-3.925,3.312-1.717-.061-2.208-2.76-2.637-4.171a66.612,66.612,0,0,1-2.085-9.2c2.024-2.269,3.435-5.275,6.5-6.195,3.5-1.1,6.011,1.9,6.133,5.213C505.31,287.287,503.286,291.519,501.2,294.585Z" transform="translate(-485.34 -242.219)" fill="#EAA421"/>
      </g>
      <g id="Group_74" data-name="Group 74" transform="translate(66.415 21.493)">
        <path id="Path_21" data-name="Path 21" d="M555.885,298.813a1.739,1.739,0,0,0-3.312-.429c-1.227,3.312-4.293,6.44-8.1,5.581-3.741-.8-5.643-5.029-6.072-8.464a14.114,14.114,0,0,1,2.147-9.138,11.949,11.949,0,0,1,3.189-3.373c.552-.429,1.84-1.349,2.637-1.043.736.307.123.491-.184,1.043a1.474,1.474,0,0,0,.245,2.085c2.576,1.656,5.459-1.227,4.845-3.925-.675-3.189-4.171-4.416-7.053-3.68-6.194,1.656-10.181,8.587-10.917,14.536-.8,6.44,1.9,14.413,8.4,16.866C548.647,311.448,556.866,306.664,555.885,298.813Z" transform="translate(-533.178 -277.262)" fill="#EAA421"/>
      </g>
    </g>
    <g id="Group_87" data-name="Group 87" transform="translate(1415.635 97.684)">
      <g id="Group_76" data-name="Group 76">
        <path id="Path_22" data-name="Path 22" d="M2213.228,188.049l-.123-.123a2.318,2.318,0,0,1-.307-2.7l6.256-11.04-3.618-2.085a11.85,11.85,0,0,1-4.416-16.13l20.056-35.266a11.766,11.766,0,0,1,16.069-4.477l61.332,34.9h0a11.85,11.85,0,0,1,4.416,16.13l-20.055,35.266a11.851,11.851,0,0,1-16.131,4.416L2253.953,194a55.851,55.851,0,0,0-16.13-6.195c-13.677-2.944-22.08.613-22.2.675A2.01,2.01,0,0,1,2213.228,188.049Zm9.445-17.05a3.733,3.733,0,0,1,1.1,1.9,4.125,4.125,0,0,1-.368,3.189l-3.741,6.624a51.355,51.355,0,0,1,19.32.613,61.034,61.034,0,0,1,17.479,6.747l22.755,12.941a7.149,7.149,0,0,0,9.752-2.7l20.056-35.266a7.149,7.149,0,0,0-2.7-9.752L2245,120.4a7.354,7.354,0,0,0-5.458-.675,6.971,6.971,0,0,0-4.293,3.373l-20.056,35.266a7.149,7.149,0,0,0,2.7,9.752l4.048,2.331A1.929,1.929,0,0,1,2222.673,171Z" transform="translate(-2209.465 -114.688)" fill="#EAC321"/>
      </g>
      <g id="Group_86" data-name="Group 86" transform="translate(17.451 12.898)">
        <g id="Group_77" data-name="Group 77" transform="translate(13.186)">
          <path id="Path_23" data-name="Path 23" d="M2319.881,173l-59.554-33.855a1.862,1.862,0,0,1-.675-2.515h0a1.862,1.862,0,0,1,2.515-.675l59.554,33.855a1.862,1.862,0,0,1,.675,2.515h0A1.893,1.893,0,0,1,2319.881,173Z" transform="translate(-2259.418 -135.718)" fill="#EAC321"/>
        </g>
        <g id="Group_78" data-name="Group 78" transform="translate(8.771 7.728)">
          <path id="Path_24" data-name="Path 24" d="M2274.839,164.069l-21.711-12.328a1.862,1.862,0,0,1-.675-2.515h0a1.862,1.862,0,0,1,2.515-.675l21.711,12.328a1.863,1.863,0,0,1,.675,2.515h0A1.893,1.893,0,0,1,2274.839,164.069Z" transform="translate(-2252.219 -148.318)" fill="#EAC321"/>
        </g>
        <g id="Group_79" data-name="Group 79" transform="translate(36.247 23.306)">
          <path id="Path_25" data-name="Path 25" d="M2307.188,182.416l-9.261-5.275a1.862,1.862,0,0,1-.675-2.515h0a1.863,1.863,0,0,1,2.515-.675l9.261,5.275a1.863,1.863,0,0,1,.675,2.515h0A1.786,1.786,0,0,1,2307.188,182.416Z" transform="translate(-2297.018 -173.718)" fill="#EAC321"/>
        </g>
        <g id="Group_80" data-name="Group 80" transform="translate(51.396 31.954)">
          <path id="Path_26" data-name="Path 26" d="M2339.555,200.871l-16.928-9.629a1.863,1.863,0,0,1-.675-2.515h0a1.863,1.863,0,0,1,2.515-.675l16.928,9.629a1.862,1.862,0,0,1,.675,2.515h0A1.862,1.862,0,0,1,2339.555,200.871Z" transform="translate(-2321.718 -187.818)" fill="#EAC321"/>
        </g>
        <g id="Group_81" data-name="Group 81" transform="translate(4.355 15.456)">
          <path id="Path_27" data-name="Path 27" d="M2255.74,169.923l-9.813-5.581a1.862,1.862,0,0,1-.675-2.515h0a1.862,1.862,0,0,1,2.514-.675l9.813,5.581a1.863,1.863,0,0,1,.675,2.515h0A1.863,1.863,0,0,1,2255.74,169.923Z" transform="translate(-2245.018 -160.918)" fill="#EAC321"/>
        </g>
        <g id="Group_82" data-name="Group 82" transform="translate(21.282 25.085)">
          <path id="Path_28" data-name="Path 28" d="M2303.764,197.215l-30.237-17.173a1.863,1.863,0,0,1-.675-2.515h0a1.863,1.863,0,0,1,2.515-.675l30.237,17.173a1.862,1.862,0,0,1,.675,2.515h0A1.893,1.893,0,0,1,2303.764,197.215Z" transform="translate(-2272.618 -176.618)" fill="#EAC321"/>
        </g>
        <g id="Group_83" data-name="Group 83" transform="translate(0 23.122)">
          <path id="Path_29" data-name="Path 29" d="M2266.3,192.481l-27.477-15.64a1.862,1.862,0,0,1-.675-2.515h0a1.862,1.862,0,0,1,2.514-.675l27.477,15.64a1.862,1.862,0,0,1,.675,2.515h0A1.786,1.786,0,0,1,2266.3,192.481Z" transform="translate(-2237.918 -173.418)" fill="#EAC321"/>
        </g>
        <g id="Group_84" data-name="Group 84" transform="translate(33.917 42.503)">
          <path id="Path_30" data-name="Path 30" d="M2307.313,215.924l-13.186-7.483a1.862,1.862,0,0,1-.675-2.515h0a1.862,1.862,0,0,1,2.515-.675l13.187,7.483a1.863,1.863,0,0,1,.675,2.515h0A1.894,1.894,0,0,1,2307.313,215.924Z" transform="translate(-2293.218 -205.018)" fill="#EAC321"/>
        </g>
        <g id="Group_85" data-name="Group 85" transform="translate(58.204 46.061)">
          <path id="Path_31" data-name="Path 31" d="M2339.492,217.492l-5.765-3.251a1.863,1.863,0,0,1-.675-2.515h0a1.862,1.862,0,0,1,2.515-.675l5.765,3.251a1.862,1.862,0,0,1,.675,2.515h0A1.893,1.893,0,0,1,2339.492,217.492Z" transform="translate(-2332.818 -210.818)" fill="#EAC321"/>
        </g>
      </g>
    </g>
    <g id="Group_99" data-name="Group 99" transform="translate(505.862 125.604)">
      <g id="Group_88" data-name="Group 88" transform="translate(0)">
        <path id="Path_32" data-name="Path 32" d="M738.863,272.5a2.228,2.228,0,0,1,0-2.453c.061-.061,5.52-9.384,4.293-25.76a67.076,67.076,0,0,0-4.661-19.749l-11.408-28.274a13.376,13.376,0,0,1,7.421-17.418l43.914-17.664a13.435,13.435,0,0,1,17.418,7.421l30.727,76.359a13.435,13.435,0,0,1-7.421,17.418l-43.914,17.664a13.376,13.376,0,0,1-17.418-7.421l-1.963-4.845-14.106,5.7a2.276,2.276,0,0,1-2.637-.675A1.679,1.679,0,0,0,738.863,272.5Zm51.948-103.59a8.958,8.958,0,0,0-3.987-3.373,8.71,8.71,0,0,0-6.685-.061l-43.914,17.664a8.725,8.725,0,0,0-4.845,11.346l11.408,28.274a71.99,71.99,0,0,1,5.029,21.1,58.631,58.631,0,0,1-2.515,23.061l9.016-3.619a4.474,4.474,0,0,1,5.827,2.515l2.024,5.029a8.725,8.725,0,0,0,11.346,4.845l43.914-17.664a8.691,8.691,0,0,0,4.845-11.346l-30.727-76.359h0A10.213,10.213,0,0,0,790.811,168.913Z" transform="translate(-726.114 -160.211)" fill="#EAA421"/>
      </g>
      <g id="Group_98" data-name="Group 98" transform="translate(30.258 12.412)">
        <g id="Group_89" data-name="Group 89" transform="translate(22.579)">
          <path id="Path_33" data-name="Path 33" d="M812.408,183.363l29.807,74.151a2.1,2.1,0,0,0,2.76,1.165h0a2.1,2.1,0,0,0,1.165-2.76l-29.746-74.151a2.1,2.1,0,0,0-2.76-1.165h0A2.129,2.129,0,0,0,812.408,183.363Z" transform="translate(-812.262 -180.448)" fill="#EAA421"/>
        </g>
        <g id="Group_90" data-name="Group 90" transform="translate(31.954 51.028)">
          <path id="Path_34" data-name="Path 34" d="M827.7,266.563l10.856,26.986a2.1,2.1,0,0,0,2.76,1.165h0a2.1,2.1,0,0,0,1.165-2.76l-10.856-26.986a2.1,2.1,0,0,0-2.76-1.165h0A2.1,2.1,0,0,0,827.7,266.563Z" transform="translate(-827.548 -263.648)" fill="#EAA421"/>
        </g>
        <g id="Group_91" data-name="Group 91" transform="translate(24.41 32.322)">
          <path id="Path_35" data-name="Path 35" d="M815.4,236.063l4.661,11.53a2.1,2.1,0,0,0,2.76,1.165h0a2.1,2.1,0,0,0,1.165-2.76l-4.661-11.53a2.1,2.1,0,0,0-2.76-1.165h0A2.1,2.1,0,0,0,815.4,236.063Z" transform="translate(-815.248 -233.148)" fill="#EAA421"/>
        </g>
        <g id="Group_92" data-name="Group 92" transform="translate(12.977 3.864)">
          <path id="Path_36" data-name="Path 36" d="M796.786,189.663l8.464,21.1a2.1,2.1,0,0,0,2.76,1.165h0a2.1,2.1,0,0,0,1.165-2.76l-8.464-21.1a2.1,2.1,0,0,0-2.76-1.165h0A2.072,2.072,0,0,0,796.786,189.663Z" transform="translate(-796.606 -186.748)" fill="#EAA421"/>
        </g>
        <g id="Group_93" data-name="Group 93" transform="translate(28.282 69.673)">
          <path id="Path_37" data-name="Path 37" d="M821.708,296.963l4.907,12.205a2.1,2.1,0,0,0,2.76,1.165h0a2.1,2.1,0,0,0,1.165-2.76l-4.907-12.205a2.1,2.1,0,0,0-2.76-1.165h0A2.152,2.152,0,0,0,821.708,296.963Z" transform="translate(-821.561 -294.048)" fill="#EAA421"/>
        </g>
        <g id="Group_94" data-name="Group 94" transform="translate(9.603 23.245)">
          <path id="Path_38" data-name="Path 38" d="M791.286,221.263l15.149,37.6a2.1,2.1,0,0,0,2.76,1.165h0a2.1,2.1,0,0,0,1.165-2.76l-15.149-37.6a2.1,2.1,0,0,0-2.76-1.165h0A2.052,2.052,0,0,0,791.286,221.263Z" transform="translate(-791.106 -218.348)" fill="#EAA421"/>
        </g>
        <g id="Group_95" data-name="Group 95" transform="translate(9.821 51.58)">
          <path id="Path_39" data-name="Path 39" d="M791.608,267.463l13.738,34.223a2.1,2.1,0,0,0,2.76,1.165h0a2.1,2.1,0,0,0,1.165-2.76l-13.738-34.223a2.1,2.1,0,0,0-2.76-1.165h0A2.152,2.152,0,0,0,791.608,267.463Z" transform="translate(-791.461 -264.548)" fill="#EAA421"/>
        </g>
        <g id="Group_96" data-name="Group 96" transform="translate(0 27.109)">
          <path id="Path_40" data-name="Path 40" d="M775.6,227.563l6.624,16.376a2.1,2.1,0,0,0,2.76,1.165h0a2.1,2.1,0,0,0,1.165-2.76l-6.624-16.376a2.1,2.1,0,0,0-2.76-1.165h0A2.1,2.1,0,0,0,775.6,227.563Z" transform="translate(-775.448 -224.648)" fill="#EAA421"/>
        </g>
        <g id="Group_97" data-name="Group 97" transform="translate(3.373 7.728)">
          <path id="Path_41" data-name="Path 41" d="M781.1,195.963l2.883,7.176a2.1,2.1,0,0,0,2.76,1.165h0a2.1,2.1,0,0,0,1.165-2.76l-2.883-7.176a2.1,2.1,0,0,0-2.76-1.165h0A2.121,2.121,0,0,0,781.1,195.963Z" transform="translate(-780.948 -193.048)" fill="#EAA421"/>
        </g>
      </g>
    </g>
    <g id="Group_111" data-name="Group 111" transform="translate(675.723 121.114)">
      <g id="Group_100" data-name="Group 100" transform="translate(0)">
        <path id="Path_42" data-name="Path 42" d="M1004.865,201.471a11.758,11.758,0,0,1-1.779-5.581,11.961,11.961,0,0,1,2.944-8.587l26.864-30.421a11.829,11.829,0,0,1,16.682-1.043h0l52.93,46.735a11.83,11.83,0,0,1,1.042,16.682l-26.864,30.421A11.829,11.829,0,0,1,1060,250.721l-3.128-2.76-8.4,9.507a2.445,2.445,0,0,1-2.7.613,2.355,2.355,0,0,1-1.411-2.331c0-.061.613-9.2-6.562-21.16a58.246,58.246,0,0,0-11.1-13.248l-19.626-17.3A14.465,14.465,0,0,1,1004.865,201.471ZM1046.51,159.4a7.178,7.178,0,0,0-10.12.613l-26.864,30.421a6.91,6.91,0,0,0-1.779,5.152,7.106,7.106,0,0,0,2.392,4.907l19.626,17.3a62.094,62.094,0,0,1,12.021,14.352,50.716,50.716,0,0,1,6.869,18.032l5.029-5.7a4.174,4.174,0,0,1,5.888-.368l3.5,3.067a7.178,7.178,0,0,0,10.12-.613l26.864-30.421a7.178,7.178,0,0,0-.613-10.12Z" transform="translate(-1003.066 -152.889)" fill="#EAC321"/>
      </g>
      <g id="Group_110" data-name="Group 110" transform="translate(23.768 11.809)">
        <g id="Group_101" data-name="Group 101" transform="translate(11.776)">
          <path id="Path_43" data-name="Path 43" d="M1061.62,175.368l51.4,45.386a1.786,1.786,0,0,0,2.576-.184h0a1.786,1.786,0,0,0-.184-2.576l-51.4-45.386a1.786,1.786,0,0,0-2.576.184h0A1.9,1.9,0,0,0,1061.62,175.368Z" transform="translate(-1061.018 -172.144)" fill="#EAC321"/>
        </g>
        <g id="Group_102" data-name="Group 102" transform="translate(38.553 35.511)">
          <path id="Path_44" data-name="Path 44" d="M1105.3,233.268l18.706,16.5a1.786,1.786,0,0,0,2.576-.184h0a1.786,1.786,0,0,0-.184-2.576l-18.706-16.5a1.786,1.786,0,0,0-2.576.184h0A1.84,1.84,0,0,0,1105.3,233.268Z" transform="translate(-1104.677 -230.044)" fill="#EAC321"/>
        </g>
        <g id="Group_103" data-name="Group 103" transform="translate(25.576 24.042)">
          <path id="Path_45" data-name="Path 45" d="M1084.12,214.568l7.973,7.053a1.785,1.785,0,0,0,2.576-.184h0a1.786,1.786,0,0,0-.184-2.576l-7.973-7.053a1.786,1.786,0,0,0-2.576.184h0A1.9,1.9,0,0,0,1084.12,214.568Z" transform="translate(-1083.518 -211.344)" fill="#EAC321"/>
        </g>
        <g id="Group_104" data-name="Group 104" transform="translate(5.888 6.685)">
          <path id="Path_46" data-name="Path 46" d="M1052.02,186.268l14.6,12.88a1.786,1.786,0,0,0,2.576-.184h0a1.786,1.786,0,0,0-.184-2.576l-14.6-12.88a1.786,1.786,0,0,0-2.576.184h0A1.9,1.9,0,0,0,1052.02,186.268Z" transform="translate(-1051.418 -183.044)" fill="#EAC321"/>
        </g>
        <g id="Group_105" data-name="Group 105" transform="translate(42.908 51.212)">
          <path id="Path_47" data-name="Path 47" d="M1112.4,258.867l8.464,7.483a1.785,1.785,0,0,0,2.576-.184h0a1.786,1.786,0,0,0-.184-2.576l-8.464-7.483a1.786,1.786,0,0,0-2.576.184h0A1.84,1.84,0,0,0,1112.4,258.867Z" transform="translate(-1111.777 -255.644)" fill="#EAC321"/>
        </g>
        <g id="Group_106" data-name="Group 106" transform="translate(10.749 22.816)">
          <path id="Path_48" data-name="Path 48" d="M1059.991,212.568l26.066,23a1.786,1.786,0,0,0,2.576-.184h0a1.786,1.786,0,0,0-.184-2.576l-26.066-23a1.786,1.786,0,0,0-2.576.184h0A1.786,1.786,0,0,0,1059.991,212.568Z" transform="translate(-1059.344 -209.344)" fill="#EAC321"/>
        </g>
        <g id="Group_107" data-name="Group 107" transform="translate(21.789 44.405)">
          <path id="Path_49" data-name="Path 49" d="M1077.992,247.768l23.674,20.914a1.785,1.785,0,0,0,2.576-.184h0a1.786,1.786,0,0,0-.184-2.576l-23.674-20.914a1.786,1.786,0,0,0-2.576.184h0A1.782,1.782,0,0,0,1077.992,247.768Z" transform="translate(-1077.344 -244.544)" fill="#EAC321"/>
        </g>
        <g id="Group_108" data-name="Group 108" transform="translate(4.861 29.439)">
          <path id="Path_50" data-name="Path 50" d="M1050.392,223.368l11.347,10.059a1.786,1.786,0,0,0,2.576-.184h0a1.786,1.786,0,0,0-.184-2.576l-11.347-10.058a1.785,1.785,0,0,0-2.576.184h0A1.778,1.778,0,0,0,1050.392,223.368Z" transform="translate(-1049.744 -220.144)" fill="#EAC321"/>
        </g>
        <g id="Group_109" data-name="Group 109" transform="translate(0 13.309)">
          <path id="Path_51" data-name="Path 51" d="M1042.42,197.068l4.968,4.355a1.786,1.786,0,0,0,2.576-.184h0a1.786,1.786,0,0,0-.184-2.576l-4.968-4.355a1.786,1.786,0,0,0-2.576.184h0A1.9,1.9,0,0,0,1042.42,197.068Z" transform="translate(-1041.818 -193.844)" fill="#EAC321"/>
        </g>
      </g>
    </g>
    <g id="Group_119" data-name="Group 119" transform="translate(882.499 164.598)">
      <g id="Group_112" data-name="Group 112" transform="translate(0 35.72)">
        <path id="Path_52" data-name="Path 52" d="M1352.285,289.677c-10.058,8.157-15.026,22.509-10.243,34.837,3.312,8.464,11.347,13.8,14.965,22.141a60.6,60.6,0,0,1,3.619,13.554,58.6,58.6,0,0,0,2.7,9.875,3.844,3.844,0,0,0-.675.736,2.261,2.261,0,0,0-.307.675,3.443,3.443,0,0,0-6.256,1.656c-.552,4.232,1.472,7.728,3.925,10.978,1.472,1.963,2.147,4.048,3.373,6.133a5.579,5.579,0,0,0,3.312,2.576c3.373,1.1,8.648,1.84,12.144.981,3.557-.859,5.643-5.029,7.667-7.789,2.637-3.557,5.152-6.195,4.968-10.794-.123-3.067-.859-5.213-3.987-6.072h0c.613-8.648,1.472-17.848,5.827-25.453,4.6-7.973,12.512-13.248,14.842-22.509,3.434-13.616-4.784-28.029-16.5-34.775C1379.639,279.435,1363.08,280.968,1352.285,289.677Zm10.61,84.884a6.109,6.109,0,0,0,.123-.981l.184.184c2.147,1.656,4.048,1.043,6.624.8,2.76-.245,5.458-.307,8.219-.307,1.595,0,7.176-.491,8.341.552,1.227,1.1.8,2.576,0,3.864a12.887,12.887,0,0,1-6.317,1.349,32.078,32.078,0,0,0-7.667,1.043c-.613.184-.92,1.043-.307,1.411a15.418,15.418,0,0,0,9.629,2.085,19.488,19.488,0,0,1-2.515,2.515c-2.269,1.779-6.195.981-8.893.613-2.331-.307-2.515-.184-3.067-2.7a20.357,20.357,0,0,0-.92-3.312C1365.41,379.652,1362.344,377.015,1362.9,374.561Zm-5.7-82.983a30.213,30.213,0,0,1,38.823,4.048,25.569,25.569,0,0,1,7.115,18.216c-.307,7.973-4.171,13.432-9.139,19.32-8.709,10.242-10.917,22.141-11.9,35.082a78.832,78.832,0,0,0-8.464-.123c-2.576.061-5.827-.245-8.341.736a36.3,36.3,0,0,0,.429-10.365,48.314,48.314,0,0,0-2.515-10.978,38.01,38.01,0,0,0-5.643-10.549c-2.944-3.987-6.808-7.3-9.322-11.592C1341.613,313.9,1346.827,298.877,1357.192,291.579Z" transform="translate(-1340.207 -282.028)" fill="#EAC321"/>
      </g>
      <g id="Group_113" data-name="Group 113" transform="translate(40.623 72.03)">
        <path id="Path_53" data-name="Path 53" d="M1415.8,341.335c.368-.307.8.123.552.552-3.005,5.643-4.416,12.205-8.034,17.541a.92.92,0,0,1-1.656-.368C1405.312,351.884,1410.4,345.382,1415.8,341.335Z" transform="translate(-1406.442 -341.231)" fill="#EAC321"/>
      </g>
      <g id="Group_114" data-name="Group 114" transform="translate(32.931 69.814)">
        <path id="Path_54" data-name="Path 54" d="M1398.99,337.974c1.1,6.256,1.533,13.493-1.165,19.381a1.292,1.292,0,0,1-2.331.123c-3.189-6.256-1.227-14.168,2.637-19.688A.5.5,0,0,1,1398.99,337.974Z" transform="translate(-1393.9 -337.617)" fill="#EAC321"/>
      </g>
      <g id="Group_115" data-name="Group 115" transform="translate(22.708 70.389)">
        <path id="Path_55" data-name="Path 55" d="M1380.77,339.564c2.453,4.907,3.864,9.629,2.76,15.088-.245,1.227-2.208,2.024-2.76.491-1.779-4.723-2.453-9.568-3.5-14.474C1376.844,338.582,1379.85,337.724,1380.77,339.564Z" transform="translate(-1377.232 -338.554)" fill="#EAC321"/>
      </g>
      <g id="Group_116" data-name="Group 116" transform="translate(48.41 8.4)">
        <path id="Path_56" data-name="Path 56" d="M1419.176,261.782c1.9-8.4,8.157-16.437,12.88-23.49,1.227-1.84,4.6-.245,3.619,1.9-3.741,7.851-7.482,17.418-13.861,23.429C1420.464,264.848,1418.869,263.192,1419.176,261.782Z" transform="translate(-1419.137 -237.484)" fill="#EAC321"/>
      </g>
      <g id="Group_117" data-name="Group 117" transform="translate(32.011 0)">
        <path id="Path_57" data-name="Path 57" d="M1393.013,248.574c-.307-3.8-.92-7.483-.429-11.408a101.86,101.86,0,0,1,2.024-11.469c.859-3.373,5.581-1.84,5.643,1.227a78.618,78.618,0,0,1-.736,11.408c-.429,3.741-1.9,7.053-3.005,10.549C1396.08,250.475,1393.2,250.414,1393.013,248.574Z" transform="translate(-1392.4 -223.788)" fill="#EAC321"/>
      </g>
      <g id="Group_118" data-name="Group 118" transform="translate(7.735 4.716)">
        <path id="Path_58" data-name="Path 58" d="M1354.954,231.675c3.925,2.269,5.581,7.176,7.176,11.162,1.779,4.293,3.5,9.077,2.637,13.738a2.3,2.3,0,0,1-3.987,1.288c-3.067-3.619-4.232-8.4-5.52-12.818-1.227-4.171-3.189-8.4-2.147-12.818A1.236,1.236,0,0,1,1354.954,231.675Z" transform="translate(-1352.819 -231.477)" fill="#EAC321"/>
      </g>
    </g>
    <g id="Group_124" data-name="Group 124" transform="translate(156.512 155.001)">
      <g id="Group_120" data-name="Group 120">
        <path id="Path_59" data-name="Path 59" d="M187.171,209.527c-12.757,3.8-23.122,15.517-23.429,29.072-.184,9.322,5.336,17.541,5.52,26.925a66.115,66.115,0,0,1-1.84,14.29,60.551,60.551,0,0,0-1.288,10.426,6.189,6.189,0,0,0-.92.429,1.448,1.448,0,0,0-.552.491,3.549,3.549,0,0,0-6.624-.859c-2.208,3.8-1.656,7.912-.613,11.96.613,2.453.429,4.723.8,7.176a6.193,6.193,0,0,0,2.085,3.741c2.821,2.331,7.483,5.152,11.162,5.7,3.741.552,7.3-2.576,10.365-4.355,3.925-2.331,7.3-3.864,8.955-8.28,1.1-2.944,1.227-5.275-1.411-7.36h0c3.987-7.973,8.4-16.376,15.517-21.9,7.483-5.765,17.05-7.667,22.938-15.578,8.587-11.592,6.44-28.52-2.024-39.5C217.162,210.508,200.787,205.479,187.171,209.527Zm-23.306,84.823a6.124,6.124,0,0,0,.491-.859c.061.061.061.123.123.245,1.411,2.392,3.435,2.576,5.949,3.373q4.048,1.288,7.912,2.944c1.472.613,7.053,2.331,7.667,3.741.736,1.533-.245,2.76-1.533,3.68-2.208.307-4.355-.429-6.563-1.165a30.551,30.551,0,0,0-7.728-2.024c-.613-.061-1.288.613-.859,1.227a16.129,16.129,0,0,0,8.341,5.765,17.869,17.869,0,0,1-3.373,1.411c-2.821.8-6.256-1.533-8.709-2.883-2.147-1.165-2.331-1.165-1.84-3.741a22.675,22.675,0,0,0,.429-3.5C164.294,300.114,162.393,296.434,163.865,294.349Zm27.17-81.081A31.1,31.1,0,0,1,226.362,232.4a26.287,26.287,0,0,1-.429,20.117c-3.373,7.421-9.261,11.162-16.253,14.781-12.266,6.317-19.074,16.805-25.085,28.642-2.637-1.349-5.4-2.453-8.035-3.5-2.515-.981-5.459-2.515-8.219-2.576a34.045,34.045,0,0,0,4.416-9.69,51.676,51.676,0,0,0,1.963-11.408,41.477,41.477,0,0,0-1.165-12.266c-1.288-4.907-3.619-9.629-4.293-14.658C167.483,228.356,178.339,216.15,191.035,213.268Z" transform="translate(-156.512 -208.141)" fill="#EAA421"/>
      </g>
      <g id="Group_121" data-name="Group 121" transform="translate(39.725 43.564)">
        <path id="Path_60" data-name="Path 60" d="M236.933,279.189c.491-.123.675.429.368.736-5.091,4.232-9.016,9.875-14.536,13.493a.987.987,0,0,1-1.472-.981C222.826,285.077,230.186,280.906,236.933,279.189Z" transform="translate(-221.282 -279.171)" fill="#EAA421"/>
      </g>
      <g id="Group_122" data-name="Group 122" transform="translate(33.745 36.474)">
        <path id="Path_61" data-name="Path 61" d="M222.552,268.156c-1.411,6.317-3.864,13.432-8.709,17.97a1.334,1.334,0,0,1-2.269-.8c-.552-7.237,4.416-13.984,10.242-17.664A.5.5,0,0,1,222.552,268.156Z" transform="translate(-211.532 -267.61)" fill="#EAA421"/>
      </g>
      <g id="Group_123" data-name="Group 123" transform="translate(27.039 31.773)">
        <path id="Path_62" data-name="Path 62" d="M206.671,261.7c.429,5.581-.061,10.672-3.251,15.456-.736,1.1-2.883,1.1-2.821-.613.184-5.213,1.411-10.059,2.331-15.149C203.3,259.243,206.487,259.611,206.671,261.7Z" transform="translate(-200.598 -259.946)" fill="#EAA421"/>
      </g>
    </g>
    <g id="Group_127" data-name="Group 127" transform="translate(1692.015 118.074)">
      <g id="Group_125" data-name="Group 125">
        <path id="Path_63" data-name="Path 63" d="M2737.192,170.667a33.529,33.529,0,0,0-33.488-22.693,34.264,34.264,0,0,0-21.589,9.2c-4.354,3.987-8.709,9.752-9.568,15.885a23.8,23.8,0,0,0-2.085,7.605,27.651,27.651,0,0,0,.981,12.266,40.307,40.307,0,0,0,2.883,6.931c-2.453,1.84-4.293,5.581-5.581,7.789-2.576,4.539-5.7,8.771-8.464,13.186h0c-.858,1.717,1.411,3.741,2.822,2.515.8.859,1.595.736,3.067.675,2.024,0,4.048,0,6.072.061.491,3.251,1.1,6.5,1.84,9.69a1.582,1.582,0,0,0,1.963.981,90.276,90.276,0,0,0,9.629-3.5c.307,1.595.613,3.189.92,4.723.429,2.085.429,3.741,2.147,5.091a.878.878,0,0,0,1.349-.245.214.214,0,0,1,.062-.123c1.717-.184,2.7-1.779,3.741-3.128,1.656-2.147,3.128-4.477,4.723-6.685,1.411-2.024,2.944-4.048,4.293-6.133,1.1-1.656,2.515-3.312,2.7-5.336a31.674,31.674,0,0,0,19.994-7.237C2737.376,202.437,2742.1,185.141,2737.192,170.667Zm-37.658,51.826c-1.472,2.024-2.76,4.109-4.109,6.256-1.472,2.269-3.067,4.539-4.416,6.869-.245.491-.552.92-.859,1.411-.062-.245-.123-.429-.184-.675q-1.012-3.68-1.84-7.36a1.4,1.4,0,0,0-2.085-.736,53.451,53.451,0,0,1-9.261,3.251c-.613-3.005-1.1-5.949-1.472-9.016a1.629,1.629,0,0,0-1.718-1.472q-3.772-.184-7.544,0a7.042,7.042,0,0,0-1.165.061c2.515-3.619,4.968-7.3,7.728-10.733a42.068,42.068,0,0,0,4.416-6.072,37.934,37.934,0,0,0,7.728,8.219,33.183,33.183,0,0,0,17.051,6.869A36.792,36.792,0,0,0,2699.533,222.493Zm25.882-16.5a27.247,27.247,0,0,1-33.794,5.091c-6.624-3.864-11.592-10.672-14.291-17.786-2.76-7.176-1.227-14.229-.859-21.65.062-.736-.49-1.1-1.1-1.227,1.9-3.987,5.213-7.605,8.219-10.426a31.177,31.177,0,0,1,17.111-8.1,29.729,29.729,0,0,1,31.1,17.357C2737.13,181.4,2734.37,196.3,2725.416,205.994Z" transform="translate(-2660.092 -147.933)" fill="#EAC321"/>
      </g>
      <g id="Group_126" data-name="Group 126" transform="translate(26.006 16.565)">
        <path id="Path_64" data-name="Path 64" d="M2737.028,193.438a34.187,34.187,0,0,0-3.618-3.067c.675-4.6,1.472-9.139,2.515-13.677a1.5,1.5,0,0,0-2.269-1.533c-3.741,2.453-8.1,4.661-11.469,7.667a29.594,29.594,0,0,0-4.538-2.515,21.24,21.24,0,0,0-6.01-2.392,1.789,1.789,0,0,0-2.024,2.269q1.288,5.06,2.208,10.12a2.192,2.192,0,0,0,.245.675c-2.515,3.189-5.643,5.581-8.771,8.219-1.349,1.165-1.043,4.171,1.288,3.8,2.7-.429,5.336-.8,8.035-1.227a20.171,20.171,0,0,0,5.336-1.1,20.4,20.4,0,0,0,.981,5.459c.613,2.576,1.288,5.213,1.84,7.851.491,2.269,3.435,1.472,3.987-.245,1.288-3.864,2.331-7.667,4.355-11.224a2.518,2.518,0,0,0,.675-.061c3.373-.675,6.808-1.227,10.242-1.717a1.771,1.771,0,0,0,1.349-2.7A19.356,19.356,0,0,0,2737.028,193.438Zm-7.973,5.275a1.84,1.84,0,0,0-1.656,1.227,1.123,1.123,0,0,0-.613.675c-1.043,2.331-2.331,4.539-3.5,6.747-.245-.8-.491-1.595-.8-2.453-.675-2.024-1.472-4.477-3.189-5.827a.465.465,0,0,0-.245-.123l-.184-.184c-1.9-1.043-4.416-.859-6.562-.8-.858.061-1.779.123-2.637.184,1.656-1.963,3.25-3.925,4.968-5.765a1.212,1.212,0,0,0,.368-.859,1.891,1.891,0,0,0,.552-2.024c-.675-2.453-1.349-4.845-1.962-7.3,2.821,1.227,5.458,3.067,8.464,3.312a1.216,1.216,0,0,0,1.165-.552A58.338,58.338,0,0,0,2732,179.7c-.858,3.373-1.717,6.747-2.515,10.181a1.754,1.754,0,0,0,1.349,2.147c1.411,2.208,3.8,3.8,5.765,5.643C2734.083,198.161,2731.63,198.468,2729.054,198.713Z" transform="translate(-2702.494 -174.941)" fill="#EAC321"/>
      </g>
    </g>
    <g id="Group_134" data-name="Group 134" transform="translate(1651.146 245.512)">
      <g id="Group_129" data-name="Group 129" transform="translate(0 3.336)">
        <g id="Group_128" data-name="Group 128">
          <path id="Path_65" data-name="Path 65" d="M2594.1,362.348c-1.963-.675,1.227,6.072,1.533,6.869,1.288,3.251,2.7,6.5,4.048,9.752,2.576,6.317,5.029,12.7,7.36,19.074,4.661,13,7.973,26.434,12.144,39.559.307.859,1.779.736,1.656-.245-1.9-16.989-6.685-33.242-13.063-49.066-3.128-7.728-6.378-15.333-10-22.816-.43-.859-1.9-5.336-3.8-4.109-.552.368-.736.92-.184,1.349.123.123.246.061.368,0l.123-.123c0-.061-.062-.245-.184-.245Z" transform="translate(-2593.457 -361.155)" fill="#EAA421"/>
        </g>
      </g>
      <g id="Group_131" data-name="Group 131" transform="translate(34.596 0)">
        <g id="Group_130" data-name="Group 130">
          <path id="Path_66" data-name="Path 66" d="M2650.438,357.3c-1.349,5.459,0,11.96.8,17.418.8,5.827,1.595,11.592,1.9,17.48a186.137,186.137,0,0,1-1.227,36.493c-.245,1.656,2.208,2.331,2.576.613,2.76-11.96,4.355-23.674,3.741-36-.307-6.072-1.042-12.082-1.9-18.093-.858-5.949-.8-12.144-1.84-18.032-.368-2.147-3.557-1.779-4.048.123Z" transform="translate(-2649.865 -355.716)" fill="#EAA421"/>
        </g>
      </g>
      <g id="Group_133" data-name="Group 133" transform="translate(49.586 12.931)">
        <g id="Group_132" data-name="Group 132">
          <path id="Path_67" data-name="Path 67" d="M2690.31,378.517a372.546,372.546,0,0,1-15.947,65.135c-.429,1.288,1.656,2.085,2.27.859a207.889,207.889,0,0,0,18.093-64.951c.307-2.821-3.987-3.987-4.416-1.043Z" transform="translate(-2674.306 -376.799)" fill="#EAA421"/>
        </g>
      </g>
    </g>
    <g id="Group_136" data-name="Group 136" transform="translate(1781.356 261.278)">
      <g id="Group_135" data-name="Group 135" transform="translate(0 0)">
        <path id="Path_68" data-name="Path 68" d="M2809.28,400.544c6.44-3.373,11.1-8.955,18.154-11.408,7.973-2.76,13.739.491,20.056,5.152,4.907,3.619,10,6.379,16.253,5.949,7.115-.552,13.31-4.6,19.933-6.747a38.821,38.821,0,0,1,23.184-.368c6.563,1.963,12.635,6.379,19.749,5.949,5.274-.307,9.506-3.312,13.493-6.5,5.643-4.539,10.611-8.219,18.216-7.667,13.677,1.1,25.76,11.1,39.8,6.808a1.117,1.117,0,0,0-.613-2.147c-13.187,2.024-25.024-6.5-37.842-7.973a26.6,26.6,0,0,0-15.762,3.067c-5.458,2.944-10.794,8.587-17.357,9.016-7.36.491-14.535-5.336-21.65-6.869a44.774,44.774,0,0,0-20.362.307c-7.789,1.963-15.578,7.973-23.92,6.992-6.93-.8-11.653-7.053-17.664-10-6.317-3.067-13.125-2.7-19.5,0-6.256,2.7-13.555,7.605-17.418,13.309-1.1,2.024,1.41,4.109,3.25,3.128Z" transform="translate(-2805.759 -381.422)" fill="#EAA421"/>
      </g>
    </g>
    <g id="Group_137" data-name="Group 137" transform="translate(349.744 247.181)">
      <path id="Path_69" data-name="Path 69" d="M477.844,429.867c-3.128-5.275-2.331-13.186-1.963-19.074a96.807,96.807,0,0,1,2.821-17.786,99.04,99.04,0,0,1,5.7-16.5c1.1-2.576,2.392-5.029,3.741-7.483,1.533-2.76,2.515-5.581,3.8-8.464a1.476,1.476,0,0,0-2.392-1.656,36.827,36.827,0,0,0-6.011,7.728,81.069,81.069,0,0,0-3.987,8.4,96.375,96.375,0,0,0-5.827,18.768,104.369,104.369,0,0,0-2.147,19.013,47.125,47.125,0,0,0,.613,9.752,15.479,15.479,0,0,0,4.477,8.341C477.231,431.523,478.273,430.6,477.844,429.867Z" transform="translate(-471.569 -358.438)" fill="#EAA421"/>
    </g>
    <g id="Group_138" data-name="Group 138" transform="translate(397.697 154.858)">
      <path id="Path_70" data-name="Path 70" d="M636.016,209.559a33.97,33.97,0,0,0-12.389-1.595,106.783,106.783,0,0,0-11.714,1.227,100.487,100.487,0,0,0-24.1,6.992c-14.965,6.44-28.7,16.008-37.965,29.5-.368.552.491,1.043.92.675,11.53-10.733,24.472-20.3,39.253-26.128a107.426,107.426,0,0,1,22.693-6.317,111.5,111.5,0,0,1,11.1-1.1,112.3,112.3,0,0,0,12.021-1.165A1.069,1.069,0,0,0,636.016,209.559Z" transform="translate(-549.754 -207.907)" fill="#EAA421"/>
    </g>
    <g id="Group_139" data-name="Group 139" transform="translate(609.346 156.408)">
      <path id="Path_71" data-name="Path 71" d="M944,224.213c-3.189-3.005-7.237-4.661-11.224-6.317a112.468,112.468,0,0,0-12.328-4.232,80.4,80.4,0,0,0-13.248-2.637c-3.925-.491-8.1-.981-12.021-.123-.552.123-.368.859.061.981,3.864,1.349,8.157,1.717,12.144,2.576,4.048.92,8.157,1.9,12.144,3.128a125.489,125.489,0,0,1,12.144,4.477c3.68,1.595,7.115,3.619,11.04,4.661A1.48,1.48,0,0,0,944,224.213Z" transform="translate(-894.841 -210.435)" fill="#EAA421"/>
    </g>
    <g id="Group_140" data-name="Group 140" transform="translate(769.453 210.917)">
      <path id="Path_72" data-name="Path 72" d="M1204.533,411.726c2.882-7.912,2.331-16.621,1.472-24.9a131.162,131.162,0,0,0-4.907-24.288,129.231,129.231,0,0,0-23.8-44.65,120.759,120.759,0,0,0-9.261-10.12c-3.128-3.005-7.053-6.808-11.162-8.4-.552-.245-1.288.368-.859.981,2.085,3.005,5.213,5.4,7.789,8.035,2.883,2.944,5.765,5.888,8.4,9.077a123.988,123.988,0,0,1,13.922,20.3,127.626,127.626,0,0,1,15.21,46.551c1.1,9.077.368,18.277,1.717,27.354A.752.752,0,0,0,1204.533,411.726Z" transform="translate(-1155.89 -299.31)" fill="#EAA421"/>
    </g>
    <g id="Group_141" data-name="Group 141" transform="translate(1388.377 185.878)">
      <path id="Path_73" data-name="Path 73" d="M2229.039,287.2c1.472-4.784,2.76-9.629,3.925-14.474.981-4.232,2.147-9.138,1.472-13.493-.184-.981-1.533-.92-1.963-.245-2.515,4.109-3.251,9.507-4.355,14.106-1.227,5.029-2.576,10-4.17,14.965a132.23,132.23,0,0,1-12.941,29.01c-10.242,16.805-26.25,31.709-45.386,37.413a.826.826,0,0,0,.429,1.595C2199.293,348.039,2219.41,318.232,2229.039,287.2Z" transform="translate(-2165.022 -258.484)" fill="#EAA421"/>
    </g>
    <g id="Group_142" data-name="Group 142" transform="translate(1497.503 104.255)">
      <path id="Path_74" data-name="Path 74" d="M2454.052,239.847a1.158,1.158,0,0,0-1.963-1.043c-1.84,2.208-3.128,4.784-4.968,6.992-1.9,2.392-4.048,4.6-6.133,6.869q-2.116,2.208-4.416,4.232c.981-1.349,1.9-2.7,2.821-3.987a93.292,93.292,0,0,0,9.813-18.645c4.845-12.573,6.746-26.373,4.293-39.682-2.944-15.762-12.328-30.359-23.122-41.951-11.1-12.021-25.392-21.4-41.4-25.269-15.7-3.8-31.77-2.208-45.815,5.949a.426.426,0,0,0,.43.736c12.45-5.643,27.354-6.808,40.724-4.232,15.149,2.944,28.826,10.978,39.743,21.712,11.04,10.856,20.792,24.962,24.594,40.111,3.066,12.266,1.9,25.208-2.085,37.106a87.512,87.512,0,0,1-9.261,19.136,62.867,62.867,0,0,1-4.661,6.195,40.241,40.241,0,0,0-2.085-19.81c-.245-.613-1.349-.613-1.227.184.92,8.955.8,17.664-1.84,26.189a27.653,27.653,0,0,0-2.822,4.845c-.307.613.245,1.595,1.043,1.288.123-.061.184-.061.245-.123a1.838,1.838,0,0,0,2.7.92,66.141,66.141,0,0,0,15.395-11.96C2448.042,251.316,2452.4,245.428,2454.052,239.847Z" transform="translate(-2342.947 -125.402)" fill="#EAA421"/>
    </g>
    <g id="Group_143" data-name="Group 143" transform="translate(646.006 220.768)">
      <path id="Path_75" data-name="Path 75" d="M975.888,326c0-7.728-9.261-13.125-16.008-9.445-3.741,2.024-6.317,6.5-4.845,10.733a5.969,5.969,0,0,0,.675,1.411,10.748,10.748,0,0,0,5.52,7.115C967.792,339.063,975.888,333.053,975.888,326Z" transform="translate(-954.614 -315.372)" fill="#EAA421"/>
    </g>
    <g id="Group_144" data-name="Group 144" transform="translate(1492.855 284.558)">
      <path id="Path_76" data-name="Path 76" d="M2356.548,427.3c-1.84-7.483-12.144-10.488-17.786-5.4-3.189,2.883-4.6,7.851-2.147,11.592a9.56,9.56,0,0,0,.981,1.227,10.662,10.662,0,0,0,7.053,5.581C2351.825,441.9,2358.265,434.173,2356.548,427.3Z" transform="translate(-2335.369 -419.38)" fill="#EAC321"/>
    </g>
    <g id="Group_145" data-name="Group 145" transform="translate(445.94 110.493)">
      <path id="Path_77" data-name="Path 77" d="M649.688,146.2c0-7.728-9.261-13.125-16.008-9.445-3.741,2.024-6.317,6.5-4.845,10.733a5.971,5.971,0,0,0,.675,1.411,10.748,10.748,0,0,0,5.52,7.115C641.592,159.2,649.688,153.253,649.688,146.2Z" transform="translate(-628.414 -135.572)" fill="#EAC321"/>
    </g>
    <g id="Group_146" data-name="Group 146" transform="translate(1427.352 297.07)">
      <path id="Path_78" data-name="Path 78" d="M2249.748,447.7c-1.84-7.483-12.144-10.488-17.786-5.4-3.189,2.883-4.6,7.851-2.147,11.592a9.563,9.563,0,0,0,.981,1.227,10.662,10.662,0,0,0,7.053,5.581C2245.025,462.24,2251.465,454.512,2249.748,447.7Z" transform="translate(-2228.569 -439.78)" fill="#EAC321"/>
    </g>
    <g id="Group_147" data-name="Group 147" transform="translate(680.811 270.522)">
      <path id="Path_79" data-name="Path 79" d="M1023.529,405.084c3.5-6.317-6.256-11.592-10.672-6.624a6.565,6.565,0,0,0,0,8.341,5.328,5.328,0,0,0,5.4,1.717A6.8,6.8,0,0,0,1023.529,405.084Z" transform="translate(-1011.362 -396.494)" fill="#EAA421"/>
    </g>
    <g id="Group_148" data-name="Group 148" transform="translate(481.42 80.944)">
      <path id="Path_80" data-name="Path 80" d="M698.429,95.984c3.5-6.317-6.256-11.592-10.672-6.624a6.565,6.565,0,0,0,0,8.341,5.328,5.328,0,0,0,5.4,1.717A6.7,6.7,0,0,0,698.429,95.984Z" transform="translate(-686.262 -87.394)" fill="#EAC321"/>
    </g>
    <g id="Group_149" data-name="Group 149" transform="translate(634.488 270.584)">
      <path id="Path_81" data-name="Path 81" d="M946.976,407.883c2.576-2.76,2.637-7.483-.552-9.752-.123-.123-.245-.184-.307-.307a6.58,6.58,0,0,0-9.016,1.349c-2.147,2.76-1.411,6.624,1.043,8.955A6.168,6.168,0,0,0,946.976,407.883Z" transform="translate(-935.834 -396.594)" fill="#EAA421"/>
    </g>
    <g id="Group_150" data-name="Group 150" transform="translate(1467.032 335.022)">
      <path id="Path_82" data-name="Path 82" d="M2305.492,511.681c1.84-3.312.8-7.912-2.883-9.323l-.368-.184c-3.189-1.472-7.053.368-8.464,3.435-1.411,3.189.245,6.808,3.128,8.464A6.246,6.246,0,0,0,2305.492,511.681Z" transform="translate(-2293.265 -501.658)" fill="#EAC321"/>
    </g>
    <g id="Group_151" data-name="Group 151" transform="translate(523.047 97.565)">
      <path id="Path_83" data-name="Path 83" d="M765.276,125.783c2.576-2.76,2.637-7.483-.552-9.752-.123-.123-.245-.184-.307-.307a6.58,6.58,0,0,0-9.016,1.349c-2.147,2.76-1.411,6.624,1.043,8.955A6.166,6.166,0,0,0,765.276,125.783Z" transform="translate(-754.134 -114.494)" fill="#EAC321"/>
    </g>
    <g id="Group_152" data-name="Group 152" transform="translate(1661.027 118.037)">
      <path id="Path_84" data-name="Path 84" d="M2649.024,155.679c-4.845-4.171-12.45-5.765-18.645-6.747-6.317-1.043-13.861-1.84-20.055.245a1.066,1.066,0,0,0,.307,2.085c3.128.307,6.256,0,9.384.061a76.763,76.763,0,0,1,9.936.981,68.137,68.137,0,0,1,8.648,2.024c3.128.92,6.256,2.331,9.445,2.883C2648.963,157.4,2649.822,156.353,2649.024,155.679Z" transform="translate(-2609.568 -147.873)" fill="#EAC321"/>
    </g>
    <g id="Group_153" data-name="Group 153" transform="translate(1711.091 73.288)">
      <path id="Path_85" data-name="Path 85" d="M2701.625,103.915c-.49-2.576-1.84-5.091-2.7-7.605-.8-2.392-1.595-4.845-2.208-7.3a58.365,58.365,0,0,1-1.288-7.973c-.245-2.024.062-4.293-1.41-5.827a1.133,1.133,0,0,0-1.533,0c-1.595,1.595-1.288,4.232-1.227,6.317a51.393,51.393,0,0,0,1.165,8.648c1.042,4.968,2.944,11.53,6.685,15.149A1.487,1.487,0,0,0,2701.625,103.915Z" transform="translate(-2691.196 -74.912)" fill="#EAC321"/>
    </g>
    <g id="Group_154" data-name="Group 154" transform="translate(1754.329 73.845)">
      <path id="Path_86" data-name="Path 86" d="M2773.105,76.3a57.979,57.979,0,0,0-7.176,12.573c-1.779,3.987-4.355,9.016-4.232,13.432.061,1.963,2.33,2.269,3.373.92,2.576-3.373,3.741-8.525,5.336-12.45,1.779-4.293,3.864-8.464,5.4-12.88C2776.294,76.421,2774.086,75.072,2773.105,76.3Z" transform="translate(-2761.694 -75.82)" fill="#EAC321"/>
    </g>
    <g id="Group_155" data-name="Group 155" transform="translate(1770.345 109.313)">
      <path id="Path_87" data-name="Path 87" d="M2816.261,133.741c-2.515.92-5.03,1.533-7.544,2.576-2.331.981-4.6,2.024-6.931,3.067-2.453,1.1-4.845,2.269-7.237,3.557-2.147,1.165-4.477,2.085-6.256,3.8-1.043.981-.307,3.189,1.227,3.005,4.661-.613,9.568-3.373,13.8-5.4,2.392-1.165,4.845-2.269,7.237-3.557s4.539-2.821,6.869-4.171C2818.9,135.7,2817.978,133.128,2816.261,133.741Z" transform="translate(-2787.806 -133.648)" fill="#EAC321"/>
    </g>
    <g id="Group_156" data-name="Group 156" transform="translate(1781.445 153.581)">
      <path id="Path_88" data-name="Path 88" d="M2837.181,214.213a123.706,123.706,0,0,1-14.965-2.821c-2.331-.675-4.539-1.472-6.747-2.331-2.453-.981-4.845-2.637-7.421-3.189a1.792,1.792,0,0,0-1.718,2.944c1.595,2.024,4.478,3.312,6.747,4.477a49.193,49.193,0,0,0,7.728,3.005,37.711,37.711,0,0,0,16.315,1.411C2838.959,217.463,2838.959,214.458,2837.181,214.213Z" transform="translate(-2805.904 -205.826)" fill="#EAC321"/>
    </g>
    <g id="Group_157" data-name="Group 157" transform="translate(1765.623 189.972)">
      <path id="Path_89" data-name="Path 89" d="M2802.612,292.048a51.387,51.387,0,0,0-8.219-15.456c-3.005-3.987-7.237-9.752-12.2-11.346-1.472-.491-2.515,1.227-1.9,2.453,1.1,2.208,3.312,3.925,4.968,5.7q2.76,2.944,5.336,6.072a122.118,122.118,0,0,1,9.138,13.8C2800.649,294.747,2803.164,293.765,2802.612,292.048Z" transform="translate(-2780.108 -265.16)" fill="#EAC321"/>
    </g>
    <g id="Group_158" data-name="Group 158" transform="translate(1224.242 158.327)">
      <path id="Path_90" data-name="Path 90" d="M2048.647,240.634c-10.242-12.205-25.391-19.5-40.6-23.368-16.56-4.232-34.9-5.888-51.09.8-14.352,5.888-26.5,16.744-35.941,28.949-17.97,23.306-26.679,53.85-22.632,83.105a65.633,65.633,0,0,0,2.515,10.794.649.649,0,0,0,.429.368c.123.491.245.92.368,1.411.368,1.1,2.269.981,2.147-.307-.92-7.789,3.373-15.026,9.813-19.258,7.053-4.661,16.008-5.152,24.226-4.845,18.706.736,37.167,4.968,55.935,5.152,15.149.184,30.3-2.453,43.484-10.181,11.714-6.869,21.282-17.909,23.674-31.525C2063.49,267.007,2058.093,251.919,2048.647,240.634Zm7.728,39.866c-2.453,13.677-12.511,23.981-24.533,30.175-13.922,7.115-29.439,8.4-44.834,7.544-10.12-.613-20.117-2.085-30.176-3.189-9.384-1.043-19.074-2.269-28.581-1.288-7.973.859-16.069,3.557-21.589,9.629a22.758,22.758,0,0,0-5.459,10.488c-1.227-12.328-1.227-24.594,1.227-36.861a114.31,114.31,0,0,1,16.069-39.8c8.157-12.573,19.074-23.92,32.138-31.341,15.394-8.832,32.506-9.2,49.618-5.888,15.333,3.005,30.666,9.077,41.89,20.24C2052.389,250.447,2059.013,265.78,2056.375,280.5Z" transform="translate(-1897.406 -213.565)" fill="#EAC321"/>
    </g>
    <g id="Group_159" data-name="Group 159" transform="translate(1790.274 281.447)">
      <path id="Path_91" data-name="Path 91" d="M2995.1,427.06c-4.232-5.152-10.978-8.893-17.173-11.1-6.072-2.208-12.7-2.392-18.522.613-5.7,2.944-9.629,8.28-15.272,11.224a21.928,21.928,0,0,1-20.363-.123c-5.4-2.821-10-7.115-15.946-8.832-6.01-1.717-11.776,0-17.3,2.453-5.888,2.637-11.715,6.133-18.4,5.827-7.667-.429-14.474-4.723-21.344-7.605-6.5-2.7-13.922-4.845-20.853-2.147-5.275,2.024-9.629,6.5-9.629,12.45,0,1.165,1.9,1.533,2.147.307,1.042-6.072,6.746-10.058,12.634-10.488,7.176-.552,13.616,3.189,19.811,6.195,5.7,2.76,11.776,5.459,18.215,5.459,5.827,0,11.1-2.453,16.253-4.845,5.275-2.453,10.978-5.152,16.866-3.619,5.7,1.472,10.242,5.765,15.395,8.464a26.151,26.151,0,0,0,16.928,2.7c5.888-1.043,10.549-4.232,14.965-8.035,5.826-4.968,11.531-8.832,19.565-7.176,7.789,1.595,13.554,6.931,20.607,10.059A1.164,1.164,0,0,0,2995.1,427.06Z" transform="translate(-2820.3 -414.307)" fill="#EAC321"/>
    </g>
    <g id="Group_160" data-name="Group 160" transform="translate(187.366 110.342)">
      <path id="Path_92" data-name="Path 92" d="M209.873,136.414a1.537,1.537,0,0,0-3.005.429c-.307,5.336.859,10.917,1.472,16.192.613,5.029,1.043,10.365,2.821,15.149a1.353,1.353,0,0,0,2.637-.368c.491-5.091-.491-10.365-1.227-15.394C211.836,147.209,211.529,141.5,209.873,136.414Z" transform="translate(-206.818 -135.326)" fill="#EAC321"/>
    </g>
    <g id="Group_161" data-name="Group 161" transform="translate(218.557 115.124)">
      <path id="Path_93" data-name="Path 93" d="M265.418,143.661c-2.883,3.864-3.619,10.12-4.723,14.72a117.911,117.911,0,0,0-3.005,15.272c-.245,1.779,2.392,1.84,2.944.368a139.287,139.287,0,0,0,4.723-15.885c1.1-4.477,3.067-9.568,2.392-14.168C267.442,142.8,265.908,142.987,265.418,143.661Z" transform="translate(-257.674 -143.124)" fill="#EAC321"/>
    </g>
    <g id="Group_162" data-name="Group 162" transform="translate(242.387 144.856)">
      <path id="Path_94" data-name="Path 94" d="M322.822,191.6c-4.232.245-8.464,3.8-12.082,5.827-4.416,2.515-8.893,4.968-13.309,7.483-2.085,1.165-.184,4.293,1.9,3.189,4.539-2.392,9.016-4.723,13.554-7.115,3.68-1.963,8.832-3.557,11.346-6.931C324.969,193.072,323.926,191.6,322.822,191.6Z" transform="translate(-296.527 -191.6)" fill="#EAC321"/>
    </g>
    <g id="Group_163" data-name="Group 163" transform="translate(825.58 135.72)">
      <path id="Path_95" data-name="Path 95" d="M1287.083,193.261c-4.539-3.557-11.285-3.557-16.56-1.84a31.309,31.309,0,0,0-13.37,8.709c-3.987-6.747-3.189-16.253,2.269-22.08.675-.736-.368-1.84-1.1-1.1a21.085,21.085,0,0,0-3.251,25.76,38.154,38.154,0,0,0-7.421,17.725c-1.656,12.757,5.213,28.581,17.725,33.549a1.288,1.288,0,0,0,1.227-2.147c-3.741-2.883-7.3-5.643-10-9.69a33.96,33.96,0,0,1-5.152-12.941c-1.411-8.219.981-16.805,5.827-23.613l.061.061c7.544,7.728,21.037,7.728,28.888.552C1290.395,202.523,1291.805,197,1287.083,193.261Zm-1.165,7.912c-4.293,7.851-16.8,8.587-23.613,4.293a16.464,16.464,0,0,1-2.944-2.453,38.35,38.35,0,0,1,2.7-2.76,23.625,23.625,0,0,1,13.554-6.317C1279.416,193.629,1289.168,195.285,1285.917,201.173Z" transform="translate(-1247.402 -176.704)" fill="#EAC321"/>
    </g>
    <g id="Group_164" data-name="Group 164" transform="translate(976.894 226.893)">
      <path id="Path_96" data-name="Path 96" d="M1543.478,326.427c-1.595,8.587-3.435,17.6-8.1,25.085a28.032,28.032,0,0,1-10,9.69,13.965,13.965,0,0,0-.123-1.595c-.491-4.477-2.882-9.016-7.115-10.979-8.035-3.8-20.792,4.968-14.965,13.984,2.637,4.048,8.648,5.213,13.125,4.907a25.772,25.772,0,0,0,4.845-.8,38.156,38.156,0,0,1-2.392,5.888c-2.269,4.477-4.6,9.323-10,10.3-4.723.859-9.629-.859-13.922-2.637-.613-.245-1.043.736-.429,1.043,4.539,2.331,9.629,4.539,14.842,3.925,5.336-.613,8.525-4.293,11.1-8.771a38.3,38.3,0,0,0,4.6-11.1,33.766,33.766,0,0,0,5.765-3.373c10.978-8.28,14.352-22.141,15.64-35.143C1546.545,325.139,1543.785,324.771,1543.478,326.427Zm-27.968,37.6c-4.048.123-10.488-1.165-10-6.44.368-4.293,5.152-6.931,9.139-6.317,3.925.613,6.379,4.293,7.053,7.973a11.194,11.194,0,0,1,.184,3.5A18.188,18.188,0,0,1,1515.51,364.023Z" transform="translate(-1494.115 -325.359)" fill="#EAC321"/>
    </g>
    <g id="Group_165" data-name="Group 165" transform="translate(1182.942 104.633)">
      <path id="Path_97" data-name="Path 97" d="M1921.9,129.625c-14.291-4.968-30.973-5.213-44.589,1.84a41.2,41.2,0,0,0-19.136,20.608,26.891,26.891,0,0,0-4.968.061,26.141,26.141,0,0,0-22.693,30.911c.245,1.227,2.024.675,1.84-.491a23.845,23.845,0,0,1,16.866-26.373,24.18,24.18,0,0,1,7.85-.92,34.822,34.822,0,0,0-1.165,5.7c-.675,6.011.245,13.37,5.643,16.989,4.968,3.312,11.285,1.9,13.984-3.557,2.821-5.765.552-12.757-3.986-16.866a21.516,21.516,0,0,0-9.568-4.845c3.619-8.4,10.856-15.21,19.074-19.013,12.7-5.827,27.109-4.968,40.479-2.576A.76.76,0,0,0,1921.9,129.625Zm-49.127,41.706c-2.085,7.421-10.3,4.723-12.451-1.1-1.656-4.539-1.043-9.874.429-14.474a21.1,21.1,0,0,1,4.661,1.656C1870.505,159.985,1874.431,165.5,1872.775,171.331Z" transform="translate(-1830.067 -126.018)" fill="#EAC321"/>
    </g>
    <g id="Group_166" data-name="Group 166" transform="translate(267.183 71.08)">
      <path id="Path_98" data-name="Path 98" d="M424.137,132.085c2.944-15.7-3.864-33-17.234-42.013a28.327,28.327,0,0,0-23.245-3.987,21.3,21.3,0,0,0-2.76-4.293c-11.162-13.861-31.157-13.432-43.73-1.9-.613.552.245,1.656.92,1.165,9.813-7.115,23.674-9.445,34.162-2.392a24.21,24.21,0,0,1,7.728,8.648,29.97,29.97,0,0,0-10.733,7.605,26.969,26.969,0,0,0-7.36,17.05c-.061,2.76.429,5.765,2.883,7.421,3.128,2.147,7.176.675,10.12-.981,10.181-5.827,13.616-18.154,10.243-28.581a24.439,24.439,0,0,1,19.81,3.864c12.266,8.525,17.357,23.736,16.621,38.21A1.316,1.316,0,0,0,424.137,132.085Zm-46.245-21.528a18.219,18.219,0,0,1-6.011,4.784c-2.515,1.227-5.7,1.165-5.888-2.453a16.585,16.585,0,0,1,.552-4.6,24.823,24.823,0,0,1,7.605-12.573,25.556,25.556,0,0,1,7.421-4.784A20.1,20.1,0,0,1,377.892,110.557Z" transform="translate(-336.957 -71.312)" fill="#EAC321"/>
    </g>
    <g id="Group_167" data-name="Group 167" transform="translate(1875.958 135.909)">
      <path id="Path_99" data-name="Path 99" d="M3018.635,179.458c-9.691-4.416-23.061-2.576-31.709,3.312-8.28,5.643-13.616,15.824-12.45,25.882.061.429.123.859.184,1.349-8.771,5.459-16.866,16.192-14.106,26.25a.729.729,0,0,0,1.41-.368c-2.453-9.323,5.458-17.418,12.512-22.141.307-.184.552-.368.859-.552a15.923,15.923,0,0,0,5.642,8.341c3.557,2.515,8.893,2.515,11.96-.859,2.882-3.189,1.84-7.851-.859-10.733-3.5-3.741-8.709-3.987-13.248-2.147-.368.123-.675.307-1.043.429a21.692,21.692,0,0,1,.061-5.643,25.691,25.691,0,0,1,12.083-18.032,30.786,30.786,0,0,1,13.677-4.232c4.784-.368,9.323.491,14.045,1.165C3018.881,181.544,3019.862,180.01,3018.635,179.458Zm-31.77,30.789c3.25,1.165,6.563,6.379,2.576,8.771s-8.1-1.411-9.813-4.784a12.708,12.708,0,0,1-1.1-2.883C2981.223,210.063,2984.167,209.266,2986.865,210.247Z" transform="translate(-2960.005 -177.013)" fill="#EAC321"/>
    </g>
  </g>
</svg>
