<svg id="Group_50" data-name="Group 50" xmlns="http://www.w3.org/2000/svg" xmlns:xlink="http://www.w3.org/1999/xlink" width="145.405" height="105.073" viewBox="0 0 145.405 105.073">
  <defs>
    <clipPath id="clip-path">
      <rect id="Rectangle_19" data-name="Rectangle 19" width="145.405" height="105.073" fill="#63ad28"/>
    </clipPath>
  </defs>
  <g id="Group_49" data-name="Group 49" clip-path="url(#clip-path)">
    <path id="Path_7" data-name="Path 7" d="M141.132,82.867h.061l-7.1-2.435V56.383a14.338,14.338,0,0,1-1.615.164H121.171V75.992H24.234V14.6H72.7V6.463a14.373,14.373,0,0,1,.875-4.789H17.772a6.463,6.463,0,0,0-6.463,6.463V80.431L4.2,82.867h.072A6.446,6.446,0,0,0,0,88.923v9.688a6.462,6.462,0,0,0,6.462,6.462h132.48a6.463,6.463,0,0,0,6.463-6.462V88.923a6.446,6.446,0,0,0-4.273-6.056M80.78,95.182H64.624a4.847,4.847,0,1,1,0-9.693H80.78a4.847,4.847,0,1,1,0,9.693M47.855,46.814a9.379,9.379,0,1,0-4.092-4.091,8.285,8.285,0,0,0,4.092,4.091M36.44,63.34v2.2a2.238,2.238,0,0,0,2.149,2.317H65.707a2.239,2.239,0,0,0,2.149-2.317v-2.2a7.361,7.361,0,0,0-7.071-7.62H43.51a7.36,7.36,0,0,0-7.07,7.62" fill="#63ad28"/>
    <path id="Path_8" data-name="Path 8" d="M132.48,0H87.243A6.462,6.462,0,0,0,80.78,6.463V51.7a3.234,3.234,0,0,0,3.245,3.237,3.188,3.188,0,0,0,1.925-.652l6.032-4.524a6.46,6.46,0,0,1,3.877-1.292H132.48a6.463,6.463,0,0,0,6.462-6.463V6.463A6.461,6.461,0,0,0,132.48,0M121.537,25.374l-13.22,8.1a3.231,3.231,0,0,1-4.918-2.755V14.522a3.231,3.231,0,0,1,4.918-2.756l13.22,8.1a3.231,3.231,0,0,1,0,5.511" fill="#63ad28"/>
  </g>
</svg>
