<svg xmlns="http://www.w3.org/2000/svg" xmlns:xlink="http://www.w3.org/1999/xlink" width="121.566" height="121.583" viewBox="0 0 121.566 121.583">
  <defs>
    <clipPath id="clip-path">
      <rect id="Rectangle_20" data-name="Rectangle 20" width="121.566" height="121.583" fill="#63ad28"/>
    </clipPath>
  </defs>
  <g id="Group_51" data-name="Group 51" clip-path="url(#clip-path)">
    <path id="Path_9" data-name="Path 9" d="M60.775,0H56.1V121.583h4.677c33.519,0,60.791-27.428,60.791-61.139C121.566,27.115,94.294,0,60.775,0M106.49,37.063H91.045a70.842,70.842,0,0,0-9.173-23.156A51.574,51.574,0,0,1,106.49,37.063M65.451,10.53C71.958,13.682,78.117,23.2,81.49,37.063H65.451Zm0,35.885H83.225a106.344,106.344,0,0,1,.931,14.029,105.71,105.71,0,0,1-.942,14.029H65.451Zm0,64.559V83.826H81.478c-3.4,14.033-9.594,23.85-16.027,27.148m16.343-3.325c4.076-6.3,7.281-14.455,9.3-23.823h15.567a51.878,51.878,0,0,1-24.87,23.823M92.645,74.473a116.092,116.092,0,0,0,.864-14.029,113.553,113.553,0,0,0-.885-14.029h17.6a50.6,50.6,0,0,1,1.988,14.029,51.921,51.921,0,0,1-1.942,14.029Z" transform="translate(0 0)" fill="#63ad28"/>
    <path id="Path_10" data-name="Path 10" d="M5.439,49.956A4.674,4.674,0,0,0,11.2,46.7a50.568,50.568,0,0,1,1.973-5.737A4.676,4.676,0,0,0,4.526,37.4a60.221,60.221,0,0,0-2.338,6.8,4.678,4.678,0,0,0,3.251,5.759M17.352,29.709a4.671,4.671,0,0,0,3.611-1.7,50.9,50.9,0,0,1,4.131-4.44A4.676,4.676,0,1,0,18.64,16.8a60.541,60.541,0,0,0-4.893,5.256,4.678,4.678,0,0,0,3.6,7.652M39.624,77.157,11.437,86.326a3.117,3.117,0,0,0-.625,5.646l6.9,4.089L1.675,112.091a3.119,3.119,0,0,0,0,4.409l2.385,2.385a3.118,3.118,0,0,0,4.409,0l16.174-16.171,3.989,6.928a3.118,3.118,0,0,0,5.662-.576L43.549,81.1a3.118,3.118,0,0,0-3.925-3.944M4.833,69.645c.125,0,.253,0,.378-.015A4.676,4.676,0,0,0,9.5,64.6q-.114-1.41-.146-2.842A4.677,4.677,0,0,0,0,61.973C.029,63.1.09,64.227.178,65.341a4.677,4.677,0,0,0,4.655,4.3M45.845,6.454a4.681,4.681,0,0,0-5.992-2.8,61.09,61.09,0,0,0-6.588,2.842,4.676,4.676,0,1,0,4.2,8.354,51.879,51.879,0,0,1,5.577-2.4,4.679,4.679,0,0,0,2.8-5.992" transform="translate(0 0)" fill="#63ad28"/>
  </g>
</svg>
