<svg id="Group_54" data-name="Group 54" xmlns="http://www.w3.org/2000/svg" xmlns:xlink="http://www.w3.org/1999/xlink" width="84.751" height="128.791" viewBox="0 0 84.751 128.791">
  <defs>
    <clipPath id="clip-path">
      <rect id="Rectangle_21" data-name="Rectangle 21" width="84.751" height="128.791" fill="#fff"/>
    </clipPath>
  </defs>
  <g id="Group_53" data-name="Group 53" clip-path="url(#clip-path)">
    <path id="Path_11" data-name="Path 11" d="M58.247,106.079H26.5a5.365,5.365,0,0,0-5.366,5.366v.771a5.366,5.366,0,0,0,5.366,5.367h5.263v1.3a9.906,9.906,0,0,0,9.907,9.907H43.1a9.907,9.907,0,0,0,9.907-9.907v-1.3h5.242a5.366,5.366,0,0,0,5.366-5.367v-.771a5.365,5.365,0,0,0-5.366-5.366" fill="#fff"/>
    <path id="Path_12" data-name="Path 12" d="M37.442.28C19.588,2.3,2.41,19.387.3,37.231A42.221,42.221,0,0,0,11.943,71.819a27.114,27.114,0,0,1,7.615,18.888v0a6.52,6.52,0,0,0,6.519,6.52h32.6a6.52,6.52,0,0,0,6.52-6.52,26.727,26.727,0,0,1,7.466-18.739A42.351,42.351,0,0,0,37.442.28m.805,80.628a4.128,4.128,0,1,1-8.255,0V63.045A10.194,10.194,0,0,0,19.81,52.862a4.128,4.128,0,0,1,0-8.256A18.46,18.46,0,0,1,38.247,63.045ZM64.94,52.862A10.193,10.193,0,0,0,54.759,63.045V80.908a4.128,4.128,0,1,1-8.256,0V63.045A18.46,18.46,0,0,1,64.94,44.606a4.128,4.128,0,0,1,0,8.256" fill="#fff"/>
  </g>
</svg>
