<svg id="Group_56" data-name="Group 56" xmlns="http://www.w3.org/2000/svg" xmlns:xlink="http://www.w3.org/1999/xlink" width="126.788" height="110.533" viewBox="0 0 126.788 110.533">
  <defs>
    <clipPath id="clip-path">
      <rect id="Rectangle_22" data-name="Rectangle 22" width="126.788" height="110.533" fill="#fff"/>
    </clipPath>
  </defs>
  <g id="Group_55" data-name="Group 55" clip-path="url(#clip-path)">
    <path id="Path_13" data-name="Path 13" d="M38.719,72.464A21.835,21.835,0,1,0,16.885,50.629,21.835,21.835,0,0,0,38.719,72.464m21.5,8.81H17.8A17.8,17.8,0,0,0,0,99.076v9.831a1.626,1.626,0,0,0,1.626,1.626H76.4a1.625,1.625,0,0,0,1.625-1.626V99.076a17.8,17.8,0,0,0-17.8-17.8" transform="translate(0 0)" fill="#fff"/>
    <path id="Path_14" data-name="Path 14" d="M120.286,0H78.023a6.5,6.5,0,0,0-6.5,6.5V56.35a6.5,6.5,0,0,1-1.3,3.9L65.67,66.319a3.251,3.251,0,0,0,2.6,5.2h52.016a6.5,6.5,0,0,0,6.5-6.5V6.5a6.5,6.5,0,0,0-6.5-6.5M99.155,57.705H87.776a4.064,4.064,0,0,1,0-8.128H99.155a4.064,4.064,0,0,1,0,8.128M110.533,41.45H87.776a4.064,4.064,0,0,1,0-8.128h22.757a4.064,4.064,0,1,1,0,8.128m0-16.255H87.776a4.063,4.063,0,0,1,0-8.127h22.757a4.063,4.063,0,1,1,0,8.127" transform="translate(0 0)" fill="#fff"/>
  </g>
</svg>