<?xml version="1.0" encoding="utf-8"?>
<!-- Generator: Adobe Illustrator 27.2.0, SVG Export Plug-In . SVG Version: 6.00 Build 0)  -->
<svg version="1.1" id="Layer_1" xmlns="http://www.w3.org/2000/svg" xmlns:xlink="http://www.w3.org/1999/xlink" x="0px" y="0px"
	 viewBox="0 0 800 800" style="enable-background:new 0 0 800 800;" xml:space="preserve">
<style type="text/css">
	.st0{fill:#3AB349;}
</style>
<g>
	<g>
		<g>
			<g>
				<g>
					<path class="st0" d="M400,167.6h-17.9v464.8H400c128.1,0,232.4-104.8,232.4-233.7C632.4,271.3,528.1,167.6,400,167.6z
						 M574.7,309.3h-59c-7.7-34.8-19.8-65-35.1-88.5C521.1,239,554.4,270.2,574.7,309.3z M417.8,207.9c24.9,12,48.4,48.4,61.3,101.4
						h-61.3V207.9z M417.8,345h67.9c2.2,16.8,3.6,34.6,3.6,53.6c0,18.9-1.3,36.8-3.6,53.6h-67.9V345z M417.8,591.8V488.1h61.3
						C466.1,541.7,442.4,579.2,417.8,591.8z M480.3,579.1c15.6-24.1,27.8-55.3,35.6-91.1h59.5C555.1,528.3,521.4,560.5,480.3,579.1z
						 M521.8,452.3c2.1-17.2,3.3-35.1,3.3-53.6c0-18.6-1.2-36.4-3.4-53.6H589c4.9,17.1,7.6,35,7.6,53.6c0,18.6-2.6,36.6-7.4,53.6
						H521.8z"/>
				</g>
			</g>
			<g>
				<g>
					<path class="st0" d="M188.4,358.6c1.6,0.4,3.2,0.7,4.8,0.7c7.8,0,15-5.2,17.2-13.1c2.1-7.4,4.6-14.8,7.5-21.9
						c3.8-9.1-0.6-19.6-9.7-23.3c-9.1-3.8-19.6,0.6-23.3,9.7c-3.5,8.4-6.5,17.2-8.9,26C173.4,346.1,178.9,355.9,188.4,358.6z
						 M234,281.2c5.2,0,10.3-2.2,13.8-6.5c4.9-6,10.2-11.7,15.8-17c7.1-6.8,7.4-18.1,0.6-25.3c-6.8-7.1-18.1-7.4-25.3-0.6
						c-6.6,6.3-12.9,13-18.7,20.1c-6.3,7.6-5.2,18.9,2.4,25.2C225.9,279.8,230,281.2,234,281.2z M319.1,462.6l-107.8,35.1
						c-9.7,3.2-11.2,16.4-2.4,21.6l26.4,15.6L174,596.1c-4.7,4.7-4.7,12.2,0,16.9l9.1,9.1c4.7,4.7,12.2,4.7,16.9,0l61.8-61.8
						l15.3,26.5c5.1,8.9,18.4,7.6,21.6-2.2l35.4-106.9C337.2,468.4,328.4,459.5,319.1,462.6z M186.1,433.8c0.5,0,1,0,1.4-0.1
						c9.8-0.8,17.2-9.4,16.4-19.2c-0.3-3.6-0.5-7.2-0.6-10.9c-0.2-9.9-8.4-17.8-18.3-17.5c-9.9,0.2-17.7,8.4-17.5,18.3
						c0.1,4.3,0.3,8.6,0.7,12.9C169.1,426.7,176.9,433.8,186.1,433.8z M342.9,192.3c-3.4-9.3-13.6-14.1-22.9-10.7
						c-8.6,3.1-17,6.8-25.2,10.9c-8.8,4.4-12.4,15.2-7.9,24c3.1,6.2,9.4,9.8,16,9.8c2.7,0,5.4-0.6,8-1.9c6.9-3.5,14.1-6.6,21.3-9.2
						C341.5,211.8,346.3,201.6,342.9,192.3z"/>
				</g>
			</g>
		</g>
	</g>
</g>
</svg>
