<?xml version="1.0" encoding="utf-8"?>
<!-- Generator: Adobe Illustrator 27.2.0, SVG Export Plug-In . SVG Version: 6.00 Build 0)  -->
<svg version="1.1" id="Layer_1" xmlns="http://www.w3.org/2000/svg" xmlns:xlink="http://www.w3.org/1999/xlink" x="0px" y="0px"
	 viewBox="0 0 800 800" style="enable-background:new 0 0 800 800;" xml:space="preserve">
<style type="text/css">
	.st0{fill:#3AB349;}
</style>
<g>
	<g>
		<g>
			<g>
				<g>
					<g>
						<g>
							<path class="st0" d="M406.9,379.7c-8.1,0-16.2-2.1-23.2-6.2l-79.6-45.7v49.6l81.2,46.7c9.1,5.2,20.3,5.2,29.4,0l85.2-49
								c9.2-5.3,14.8-15,14.8-25.6V325l-84.6,48.6C423.1,377.6,415.1,379.7,406.9,379.7z M551.4,241.6l-131.1-75.3
								c-4.2-2.4-8.8-3.6-13.4-3.6c-4.6,0-9.3,1.2-13.4,3.6l-131.1,75.3c-9.9,5.7-9.9,19.9,0,25.6l137.2,78.8c2.3,1.3,4.8,2,7.3,2
								c2.5,0,5.1-0.7,7.3-2l137.2-78.8C561.3,261.5,561.3,247.2,551.4,241.6z"/>
						</g>
					</g>
					<g>
						<g>
							<path class="st0" d="M642.1,172.2H494.7l72.6,41.7c4.3,2.5,8.1,5.7,11.3,9.3h38v229.4H183.4V223.2h51.9
								c3.2-3.6,7-6.8,11.3-9.3l72.6-41.7H157.9c-14.1,0-25.5,11.4-25.5,25.5v318.6c0,14.1,11.4,25.5,25.5,25.5H348l-9.6,57.3h-46.7
								c-10.6,0-19.1,8.6-19.1,19.1c0,10.6,8.6,19.1,19.1,19.1h216.6c10.6,0,19.1-8.6,19.1-19.1c0-10.6-8.6-19.1-19.1-19.1h-46.7
								l-9.6-57.3h190.1c14.1,0,25.5-11.4,25.5-25.5V197.7C667.6,183.6,656.2,172.2,642.1,172.2z M400,522.7
								c-10.6,0-19.1-8.6-19.1-19.1c0-10.6,8.6-19.1,19.1-19.1c10.6,0,19.1,8.6,19.1,19.1C419.1,514.1,410.6,522.7,400,522.7z
								 M247.1,297.2v67.4l-10.5,13.7c-2.9,3.8-2.9,9,0,12.7l13.8,18c4.2,5.5,12.4,5.5,16.6,0l13.8-18c2.9-3.8,2.9-9,0-12.7
								l-8.1-10.6v-55.9L247.1,297.2z"/>
						</g>
					</g>
				</g>
			</g>
		</g>
	</g>
</g>
</svg>
