<?xml version="1.0" encoding="utf-8"?>
<!-- Generator: Adobe Illustrator 27.2.0, SVG Export Plug-In . SVG Version: 6.00 Build 0)  -->
<svg version="1.1" id="Layer_1" xmlns="http://www.w3.org/2000/svg" xmlns:xlink="http://www.w3.org/1999/xlink" x="0px" y="0px"
	 viewBox="0 0 800 800" style="enable-background:new 0 0 800 800;" xml:space="preserve">
<style type="text/css">
	.st0{fill:#3AB349;}
</style>
<g>
	<g>
		<g>
			<g>
				<g>
					<path class="st0" d="M305.7,465.7c46.1,0,83.5-37.4,83.5-83.5c0-46.1-37.4-83.5-83.5-83.5c-46.1,0-83.5,37.4-83.5,83.5
						C222.2,428.4,259.6,465.7,305.7,465.7z M387.9,499.4H225.7c-37.6,0-68.1,30.5-68.1,68.1v37.6c0,3.4,2.8,6.2,6.2,6.2h285.8
						c3.4,0,6.2-2.8,6.2-6.2v-37.6C455.9,529.9,425.5,499.4,387.9,499.4z"/>
				</g>
			</g>
			<g>
				<g>
					<path class="st0" d="M617.5,188.7H455.9c-13.7,0-24.9,11.1-24.9,24.9v190.6c0,5.4-1.7,10.6-5,14.9l-17.4,23.2
						c-6.1,8.2-0.3,19.9,9.9,19.9h198.8c13.7,0,24.9-11.1,24.9-24.9V213.6C642.3,199.9,631.2,188.7,617.5,188.7z M536.7,409.3h-43.5
						c-8.6,0-15.5-7-15.5-15.5c0-8.6,7-15.5,15.5-15.5h43.5c8.6,0,15.5,7,15.5,15.5C552.2,402.4,545.3,409.3,536.7,409.3z
						 M580.2,347.2h-87c-8.6,0-15.5-7-15.5-15.5c0-8.6,7-15.5,15.5-15.5h87c8.6,0,15.5,7,15.5,15.5
						C595.7,340.2,588.8,347.2,580.2,347.2z M580.2,285h-87c-8.6,0-15.5-7-15.5-15.5c0-8.6,7-15.5,15.5-15.5h87
						c8.6,0,15.5,7,15.5,15.5C595.7,278.1,588.8,285,580.2,285z"/>
				</g>
			</g>
		</g>
	</g>
</g>
</svg>
