<?xml version="1.0" encoding="utf-8"?>
<!-- Generator: Adobe Illustrator 27.2.0, SVG Export Plug-In . SVG Version: 6.00 Build 0)  -->
<svg version="1.1" id="Layer_1" xmlns="http://www.w3.org/2000/svg" xmlns:xlink="http://www.w3.org/1999/xlink" x="0px" y="0px"
	 viewBox="0 0 800 800" style="enable-background:new 0 0 800 800;" xml:space="preserve">
<style type="text/css">
	.st0{fill:#3AB349;}
</style>
<g>
	<g>
		<g>
			<g>
				<g>
					<path class="st0" d="M661.6,515.9h0.2l-27.1-9.3v-91.9c-2.1,0.2-4.1,0.6-6.2,0.6h-43.2v74.3H214.7V255H400v-31.1
						c0-6.4,1.3-12.5,3.3-18.3H190c-13.6,0-24.7,11.1-24.7,24.7v276.4l-27.2,9.3h0.3c-9.5,3.4-16.3,12.5-16.3,23.2v37
						c0,13.6,11.1,24.7,24.7,24.7h506.4c13.6,0,24.7-11.1,24.7-24.7v-37C677.9,528.4,671.1,519.4,661.6,515.9z M430.9,563h-61.8
						c-10.2,0-18.5-8.3-18.5-18.5c0-10.2,8.3-18.5,18.5-18.5h61.8c10.2,0,18.5,8.3,18.5,18.5C449.4,554.7,441.1,563,430.9,563z
						 M305,378.1c26.4,12,52.1-7,52.1-32.1c0-19.7-16-35.7-35.7-35.7c-25,0-44,25.7-32.1,52.1C292.5,369.4,298.1,375,305,378.1z
						 M261.4,441.3v8.4c0,4.9,3.7,8.9,8.2,8.9h103.7c4.5,0,8.2-4,8.2-8.9v-8.4c0-16.1-12.1-29.1-27-29.1h-66
						C273.5,412.2,261.4,425.2,261.4,441.3z"/>
				</g>
			</g>
			<g>
				<g>
					<path class="st0" d="M628.5,199.2H455.6c-13.6,0-24.7,11.1-24.7,24.7v172.9c0,7.3,6,12.4,12.4,12.4c2.5,0,5.1-0.8,7.4-2.5
						l23.1-17.3c4.3-3.2,9.5-4.9,14.8-4.9h140c13.6,0,24.7-11.1,24.7-24.7V223.9C653.2,210.2,642.2,199.2,628.5,199.2z M586.7,296.2
						l-50.5,31c-8.2,5-18.8-0.9-18.8-10.5v-61.9c0-9.7,10.6-15.6,18.8-10.5l50.5,31C594.6,279.9,594.6,291.3,586.7,296.2z"/>
				</g>
			</g>
		</g>
	</g>
</g>
</svg>
