<?xml version="1.0" encoding="utf-8"?>
<!-- Generator: Adobe Illustrator 27.2.0, SVG Export Plug-In . SVG Version: 6.00 Build 0)  -->
<svg version="1.1" id="Layer_1" xmlns="http://www.w3.org/2000/svg" xmlns:xlink="http://www.w3.org/1999/xlink" x="0px" y="0px"
	 viewBox="0 0 800 800" style="enable-background:new 0 0 800 800;" xml:space="preserve">
<style type="text/css">
	.st0{fill:#3AB349;}
</style>
<g>
	<g>
		<g>
			<g>
				<path class="st0" d="M460.7,559.3H339.3c-11.3,0-20.5,9.2-20.5,20.5v2.9c0,11.3,9.2,20.5,20.5,20.5h20.1v5
					c0,20.9,17,37.9,37.9,37.9h5.4c20.9,0,37.9-17,37.9-37.9v-5h20c11.3,0,20.5-9.2,20.5-20.5v-2.9
					C481.2,568.5,472,559.3,460.7,559.3z"/>
			</g>
			<g>
				<g>
					<path class="st0" d="M381.1,154.9c-68.3,7.7-133.9,73-142,141.3c-6.1,51.5,12.1,98.8,44.5,132.2c18.8,19.3,29.1,45.3,29.1,72.2
						v0c0,13.8,11.2,24.9,24.9,24.9h124.6c13.8,0,24.9-11.2,24.9-24.9c0-26.7,9.9-52.6,28.5-71.6c28.6-29.2,46.2-69.1,46.2-113.1
						C562,220.1,479,143.8,381.1,154.9z M384.2,463.1c0,8.7-7.1,15.8-15.8,15.8c-8.7,0-15.8-7.1-15.8-15.8v-68.3
						c0-21.5-17.5-38.9-38.9-38.9c-8.7,0-15.8-7.1-15.8-15.8c0-8.7,7.1-15.8,15.8-15.8c38.9,0,70.5,31.6,70.5,70.5V463.1z
						 M486.3,355.9c-21.5,0-38.9,17.5-38.9,38.9v68.3c0,8.7-7.1,15.8-15.8,15.8c-8.7,0-15.8-7.1-15.8-15.8v-68.3
						c0-38.9,31.6-70.5,70.5-70.5c8.7,0,15.8,7.1,15.8,15.8C502,348.8,495,355.9,486.3,355.9z"/>
				</g>
			</g>
		</g>
	</g>
</g>
</svg>
