<svg id="icon_twitter" data-name="icon twitter" xmlns="http://www.w3.org/2000/svg" xmlns:xlink="http://www.w3.org/1999/xlink" width="50" height="50" viewBox="0 0 50 50">
  <defs>
    <clipPath id="clip-path">
      <rect id="Rectangle_9" data-name="Rectangle 9" width="50" height="50" fill="#2e842e"/>
    </clipPath>
  </defs>
  <g id="icon_twitter-2" data-name="icon twitter" clip-path="url(#clip-path)">
    <path id="Path_9" data-name="Path 9" d="M43.89,0H6.109A6.113,6.113,0,0,0,0,6.109V43.891A6.113,6.113,0,0,0,6.109,50H43.89A6.113,6.113,0,0,0,50,43.891V6.109A6.113,6.113,0,0,0,43.89,0M38.676,17.834c.015.3.015.614.015.928,0,9.53-7.1,20.53-20.1,20.53v0a19.389,19.389,0,0,1-10.8-3.262,12.659,12.659,0,0,0,1.685.1,14.012,14.012,0,0,0,8.777-3.082,7.075,7.075,0,0,1-6.594-5.013,6.642,6.642,0,0,0,1.334.135,6.927,6.927,0,0,0,1.861-.254A7.187,7.187,0,0,1,9.184,20.84v-.09a6.831,6.831,0,0,0,3.194.9,7.225,7.225,0,0,1-3.15-6,7.352,7.352,0,0,1,.95-3.627,19.908,19.908,0,0,0,14.564,7.542,6.764,6.764,0,0,1-.191-1.646,7.143,7.143,0,0,1,7.062-7.213,6.97,6.97,0,0,1,5.158,2.275,14.135,14.135,0,0,0,4.483-1.751,7.18,7.18,0,0,1-3.106,4,14.092,14.092,0,0,0,4.059-1.137,14.664,14.664,0,0,1-3.531,3.741" fill="#2e842e" fill-rule="evenodd"/>
  </g>
</svg>
