<svg id="icon_instagram" data-name="icon instagram" xmlns="http://www.w3.org/2000/svg" xmlns:xlink="http://www.w3.org/1999/xlink" width="50" height="50" viewBox="0 0 50 50">
  <defs>
    <clipPath id="clip-path">
      <rect id="Rectangle_7" data-name="Rectangle 7" width="50" height="50" fill="#2e842e"/>
    </clipPath>
  </defs>
  <g id="icon_instagram-2" data-name="icon instagram" clip-path="url(#clip-path)">
    <path id="Path_6" data-name="Path 6" d="M43.89,0H6.11A6.113,6.113,0,0,0,0,6.109V43.891A6.113,6.113,0,0,0,6.11,50H43.89A6.113,6.113,0,0,0,50,43.891V6.109A6.113,6.113,0,0,0,43.89,0m-.383,6h1.129v8.476l-8.631.027-.03-8.475Zm-25.8,14.111V20.1a9.078,9.078,0,0,1,14.582,0,8.628,8.628,0,0,1,1.7,5.14,8.995,8.995,0,0,1-17.985,0,8.638,8.638,0,0,1,1.7-5.132M45.568,40.577a4.848,4.848,0,0,1-4.895,4.791H9.334a4.849,4.849,0,0,1-4.9-4.791V20.108h7.629a13.356,13.356,0,0,0-1.027,5.137A13.84,13.84,0,0,0,25,38.913,13.839,13.839,0,0,0,38.972,25.245a13.318,13.318,0,0,0-1.029-5.132h7.625Z" transform="translate(0 0)" fill="#2e842e" fill-rule="evenodd"/>
  </g>
</svg>
