<svg id="icon_youtube" data-name="icon youtube" xmlns="http://www.w3.org/2000/svg" xmlns:xlink="http://www.w3.org/1999/xlink" width="50" height="50" viewBox="0 0 50 50">
  <defs>
    <clipPath id="clip-path">
      <rect id="Rectangle_8" data-name="Rectangle 8" width="50" height="50" fill="#2e842e"/>
    </clipPath>
  </defs>
  <path id="Path_7" data-name="Path 7" d="M21.48,30.273,30.612,25,21.48,19.727Z" fill="#2e842e" fill-rule="evenodd"/>
  <g id="Group_3" data-name="Group 3" clip-path="url(#clip-path)">
    <path id="Path_8" data-name="Path 8" d="M43.889,0H6.11A6.113,6.113,0,0,0,0,6.109V43.891A6.113,6.113,0,0,0,6.11,50H43.889A6.114,6.114,0,0,0,50,43.891V6.109A6.114,6.114,0,0,0,43.889,0M41.84,33.46a4.4,4.4,0,0,1-3.108,3.108C35.992,37.3,25,37.3,25,37.3s-11,0-13.733-.734a4.4,4.4,0,0,1-3.108-3.108A45.882,45.882,0,0,1,7.424,25a45.9,45.9,0,0,1,.735-8.461,4.4,4.4,0,0,1,3.108-3.108C14.007,12.7,25,12.7,25,12.7s10.987,0,13.729.734a4.4,4.4,0,0,1,3.107,3.108h0A45.807,45.807,0,0,1,42.576,25a45.8,45.8,0,0,1-.736,8.46" fill="#2e842e" fill-rule="evenodd"/>
  </g>
</svg>
