<svg id="Group_289" data-name="Group 289" xmlns="http://www.w3.org/2000/svg" xmlns:xlink="http://www.w3.org/1999/xlink" width="96.505" height="75.061" viewBox="0 0 96.505 75.061">
  <defs>
    <clipPath id="clip-path">
      <rect id="Rectangle_195" data-name="Rectangle 195" width="96.505" height="75.061" fill="none"/>
    </clipPath>
  </defs>
  <g id="Group_287" data-name="Group 287" clip-path="url(#clip-path)">
    <path id="Path_273" data-name="Path 273" d="M90.847.009C81.665.53,63.416,2.426,52.15,9.323a2.576,2.576,0,0,0-1.218,2.207V72.494a2.651,2.651,0,0,0,3.9,2.26c11.591-5.834,28.354-7.426,36.642-7.861a5.226,5.226,0,0,0,5.03-5.137V5.152A5.252,5.252,0,0,0,90.847.009M44.354,9.323C33.09,2.426,14.841.532,5.66.009A5.255,5.255,0,0,0,0,5.152V61.758a5.223,5.223,0,0,0,5.03,5.137c8.292.436,25.063,2.029,36.654,7.866a2.644,2.644,0,0,0,3.889-2.255V11.5a2.522,2.522,0,0,0-1.218-2.176" transform="translate(0 0)" fill="#fff"/>
  </g>
</svg>
