<svg xmlns="http://www.w3.org/2000/svg" xmlns:xlink="http://www.w3.org/1999/xlink" width="86.657" height="67.246" viewBox="0 0 86.657 67.246">
  <defs>
    <clipPath id="clip-path">
      <rect id="Rectangle_143" data-name="Rectangle 143" width="86.657" height="67.246" fill="#eaa421"/>
    </clipPath>
  </defs>
  <g id="Group_277" data-name="Group 277" transform="translate(0)">
    <g id="Group_275" data-name="Group 275" transform="translate(0 0)" clip-path="url(#clip-path)">
      <path id="Path_253" data-name="Path 253" d="M85.192,13.068h-.077a1.729,1.729,0,0,1-1.743-1.881V1.812A1.811,1.811,0,0,0,81.563,0h-26.8C48.033,0,45.524,2.493,44.9,3.275l-.171.237v0l-.53.727h0c-.712.978-1.332.561-1.63.241L41.553,3.22l-.5-.6C40.208,1.729,38.009,0,33.652,0H5.1A1.812,1.812,0,0,0,3.283,1.812v9.256c0,1.621-.88,1.946-1.42,2h-.4C1.023,13.1,0,13.35,0,15.231V59.346A1.959,1.959,0,0,0,1.96,61.3H28.023c8.315,0,11.938,3.135,13.025,4.338l.62.768h0a2.213,2.213,0,0,0,3.415,0l.363-.426h0l.005,0,.464-.542c.014-.016.125-.141.286-.306,1.387-1.349,4.855-3.828,11.636-3.828H84.7a1.958,1.958,0,0,0,1.96-1.958V14.8c0-1.595-1.154-1.728-1.465-1.736M79.336,52.424a1.6,1.6,0,0,1-1.629,1.57h-22.1c-7.864,0-10.719,3.553-10.719,3.553l-.362.486-.17.235h0c-.75,1.018-1.853.008-1.858,0l-.509-.636c-.377-.453-3.266-3.641-10.257-3.641H8.949a1.6,1.6,0,0,1-1.626-1.57V5.415a1.6,1.6,0,0,1,1.626-1.57H26.638c13.158,0,14.4,7.474,14.489,9.645V46.182c0,2.376,1.132,2.822,1.771,2.887h.951c.651-.065,1.686-.452,1.686-2.305v-33.7h-.011c.1-2.719,1.158-9.225,9.071-9.225H77.707a1.6,1.6,0,0,1,1.629,1.57Z" transform="translate(0 -0.001)" fill="#eaa421"/>
    </g>
  </g>
</svg>
