<svg id="Group_281" data-name="Group 281" xmlns="http://www.w3.org/2000/svg" xmlns:xlink="http://www.w3.org/1999/xlink" width="76.349" height="73.072" viewBox="0 0 76.349 73.072">
  <defs>
    <clipPath id="clip-path">
      <rect id="Rectangle_167" data-name="Rectangle 167" width="76.349" height="73.072" fill="none"/>
    </clipPath>
  </defs>
  <g id="Group_280" data-name="Group 280" transform="translate(0 0)" clip-path="url(#clip-path)">
    <path id="Path_255" data-name="Path 255" d="M18.441,73.072a1.077,1.077,0,0,1-1.027-.755L.049,16.859A1.077,1.077,0,0,1,.755,15.51L50.134.049a1.078,1.078,0,0,1,1.35.706L68.848,56.212a1.077,1.077,0,0,1-.706,1.349L18.762,73.022a1.083,1.083,0,0,1-.322.05M2.426,17.243l16.72,53.4L66.471,55.828,49.75,2.426Z" transform="translate(0 0)" fill="#fff"/>
    <path id="Path_256" data-name="Path 256" d="M34.754,15.278a1.076,1.076,0,0,1-1.069-.956l-.277-2.451a1.077,1.077,0,0,1,.95-1.191L46.983,9.264a1.077,1.077,0,0,1,.441,2.1L35.076,15.228a1.066,1.066,0,0,1-.322.05m.914-2.578.009.083.421-.132Z" transform="translate(-13.902 -3.854)" fill="#fff"/>
    <path id="Path_257" data-name="Path 257" d="M76.695,65.7a1.077,1.077,0,0,1-.32-2.1l21.572-6.754L81.954,5.762a1.076,1.076,0,0,1,.908-1.391L100.15,2.43a1.077,1.077,0,0,1,1.19.95l6.477,57.747a1.076,1.076,0,0,1-.949,1.19L76.816,65.689a1.056,1.056,0,0,1-.121.007M84.4,6.365l15.924,50.857a1.078,1.078,0,0,1-.706,1.35L87.705,62.3l17.852-2L99.32,4.691Z" transform="translate(-31.475 -1.009)" fill="#fff"/>
    <path id="Path_258" data-name="Path 258" d="M31.594,79.943a.538.538,0,0,1-.513-.378L13.716,24.108a.538.538,0,1,1,1.027-.321L32.107,79.244a.539.539,0,0,1-.514.7" transform="translate(-5.699 -9.743)" fill="#fff"/>
    <path id="Path_259" data-name="Path 259" d="M49.343,52.3a1.077,1.077,0,0,1-.322-2.1l13.2-4.132a1.077,1.077,0,1,1,.644,2.055l-13.2,4.132a1.071,1.071,0,0,1-.322.05" transform="translate(-20.09 -19.152)" fill="#fff"/>
    <path id="Path_260" data-name="Path 260" d="M45.038,62.449a1.077,1.077,0,0,1-.322-2.1L66.511,53.52a1.077,1.077,0,0,1,.643,2.055L45.36,62.4a1.071,1.071,0,0,1-.322.05" transform="translate(-18.298 -22.256)" fill="#fff"/>
  </g>
</svg>
