<svg id="Group_283" data-name="Group 283" xmlns="http://www.w3.org/2000/svg" xmlns:xlink="http://www.w3.org/1999/xlink" width="52.529" height="75.647" viewBox="0 0 52.529 75.647">
  <defs>
    <clipPath id="clip-path">
      <rect id="Rectangle_168" data-name="Rectangle 168" width="52.529" height="75.647" fill="none"/>
    </clipPath>
  </defs>
  <g id="Group_282" data-name="Group 282" clip-path="url(#clip-path)">
    <path id="Path_261" data-name="Path 261" d="M14.1,75.647a14.494,14.494,0,0,1-6.758-1.627A12.891,12.891,0,0,1,.26,64.891,16.952,16.952,0,0,1,4.018,51.178a1.1,1.1,0,1,1,1.671,1.427A14.93,14.93,0,0,0,2.416,64.47a10.762,10.762,0,0,0,5.936,7.6c10.531,5.46,25.732-5.328,37.828-26.844,5.575-9.919,5.52-20.8-.151-29.859C40.8,7.012,31.756,1.724,23.515,2.229a21.021,21.021,0,0,0-18.167,13.6C3.013,21.9,3.916,27.862,7.766,31.783A1.1,1.1,0,0,1,6.2,33.323C1.728,28.77.644,21.934,3.3,15.035a23.223,23.223,0,0,1,20.085-15C32.395-.5,42.246,5.184,47.891,14.2c6.112,9.76,6.187,21.461.2,32.1-10.411,18.521-23.277,29.345-34,29.346" transform="translate(0 0)" fill="#fff"/>
    <path id="Path_262" data-name="Path 262" d="M47.972,35.586a1.1,1.1,0,0,1-1.092-.994C45.821,23.577,39.3,19,33.55,18.4a13.3,13.3,0,0,0-14.244,9.25,1.1,1.1,0,0,1-2.1-.661A15.477,15.477,0,0,1,33.78,16.214c6.613.7,14.1,5.835,15.287,18.168a1.1,1.1,0,0,1-.988,1.2c-.036,0-.071.005-.107.005" transform="translate(-6.938 -6.519)" fill="#fff"/>
    <path id="Path_263" data-name="Path 263" d="M22.7,74.946c-.207,0-.424-.008-.652-.025a1.1,1.1,0,0,1,.162-2.191c2.389.176,2.464-.723,2.638-2.9.124-1.551.265-3.308,1.695-4.461,1.156-.932,2.93-1.223,5.42-.887,4.06.541,7.242-2.946,7.972-6.636.841-4.253-1.246-9.581-9.628-11.783a1.1,1.1,0,1,1,.558-2.125c9.866,2.591,12.213,9.342,11.225,14.335-1.058,5.347-5.637,9.032-10.421,8.387-1.835-.247-3.1-.1-3.748.421-.694.56-.786,1.709-.883,2.925-.16,1.987-.4,4.938-4.338,4.938" transform="translate(-8.504 -17.752)" fill="#fff"/>
    <path id="Path_264" data-name="Path 264" d="M19.169,69.376A1.1,1.1,0,0,1,19,67.191a5.448,5.448,0,0,0,4.671-3.925c.5-2.151-.559-4.337-2.918-6a1.1,1.1,0,0,1,1.265-1.8c3.084,2.169,4.5,5.271,3.792,8.3a7.627,7.627,0,0,1-6.477,5.595,1.075,1.075,0,0,1-.168.013" transform="translate(-7.307 -22.348)" fill="#fff"/>
  </g>
</svg>
