<svg id="Group_285" data-name="Group 285" xmlns="http://www.w3.org/2000/svg" xmlns:xlink="http://www.w3.org/1999/xlink" width="80.742" height="65.312" viewBox="0 0 80.742 65.312">
  <defs>
    <clipPath id="clip-path">
      <rect id="Rectangle_171" data-name="Rectangle 171" width="80.742" height="65.312" transform="translate(0 0)" fill="none"/>
    </clipPath>
  </defs>
  <g id="Group_284" data-name="Group 284" transform="translate(0 0)" clip-path="url(#clip-path)">
    <path id="Path_265" data-name="Path 265" d="M34.732,67.842a1.06,1.06,0,0,1-.345-.057,51.16,51.16,0,0,0-32.98,0A1.063,1.063,0,0,1,0,66.779V9.827A1.063,1.063,0,0,1,.718,8.821a53.29,53.29,0,0,1,34.358,0A1.063,1.063,0,0,1,35.8,9.827V66.779a1.062,1.062,0,0,1-1.063,1.063M17.9,62.928a53.153,53.153,0,0,1,15.771,2.385V10.592a51.184,51.184,0,0,0-31.542,0V65.313A53.156,53.156,0,0,1,17.9,62.928" transform="translate(0 -2.53)" fill="#fff"/>
    <path id="Path_266" data-name="Path 266" d="M93.128,67.83a1.06,1.06,0,0,1-.345-.058,51.16,51.16,0,0,0-32.98,0A1.063,1.063,0,0,1,58.4,66.767V9.814a1.064,1.064,0,0,1,.719-1.006,52.992,52.992,0,0,1,28.97-1.532,1.063,1.063,0,1,1-.473,2.073A50.865,50.865,0,0,0,60.523,10.58V65.3a53.34,53.34,0,0,1,31.542,0V32.545a1.063,1.063,0,0,1,2.126,0V66.767a1.064,1.064,0,0,1-1.063,1.063" transform="translate(-24.727 -2.518)" fill="#fff"/>
    <path id="Path_267" data-name="Path 267" d="M33.2,39.187a.53.53,0,0,1-.172-.029,29.248,29.248,0,0,0-18.858,0,.532.532,0,1,1-.344-1.006,30.322,30.322,0,0,1,19.546,0,.532.532,0,0,1-.172,1.035" transform="translate(-5.703 -15.47)" fill="#fff"/>
    <path id="Path_268" data-name="Path 268" d="M33.2,21.352a.53.53,0,0,1-.172-.029,29.248,29.248,0,0,0-18.858,0,.532.532,0,1,1-.344-1.006,30.322,30.322,0,0,1,19.546,0,.532.532,0,0,1-.172,1.035" transform="translate(-5.703 -7.918)" fill="#fff"/>
    <path id="Path_269" data-name="Path 269" d="M33.2,57.022a.53.53,0,0,1-.172-.029,29.248,29.248,0,0,0-18.858,0,.532.532,0,1,1-.344-1.006,30.322,30.322,0,0,1,19.546,0,.532.532,0,0,1-.172,1.035" transform="translate(-5.703 -23.022)" fill="#fff"/>
    <path id="Path_270" data-name="Path 270" d="M33.2,74.856a.53.53,0,0,1-.172-.029,29.248,29.248,0,0,0-18.858,0,.532.532,0,1,1-.344-1.006,30.322,30.322,0,0,1,19.546,0,.532.532,0,0,1-.172,1.035" transform="translate(-5.703 -30.573)" fill="#fff"/>
    <path id="Path_271" data-name="Path 271" d="M33.2,92.691a.53.53,0,0,1-.172-.029,29.248,29.248,0,0,0-18.858,0,.532.532,0,0,1-.344-1.006,30.322,30.322,0,0,1,19.546,0,.532.532,0,0,1-.172,1.035" transform="translate(-5.703 -38.125)" fill="#fff"/>
    <path id="Path_272" data-name="Path 272" d="M78.1,56.006a1.064,1.064,0,0,1-1.061-1l-.974-15.059a1.063,1.063,0,0,1,.123-.57L96.916.563A1.063,1.063,0,0,1,98.355.126l14.031,7.493a1.063,1.063,0,0,1,.437,1.439L92.091,47.877a1.066,1.066,0,0,1-.4.419L78.629,55.863a1.061,1.061,0,0,1-.533.144m.107-15.89.844,13.046,11.311-6.555L110.445,8.994,98.291,2.5Z" transform="translate(-32.206 0)" fill="#fff"/>
    <rect id="Rectangle_169" data-name="Rectangle 169" width="1.064" height="15.906" transform="translate(61.607 8.631) rotate(-61.896)" fill="#fff"/>
    <rect id="Rectangle_170" data-name="Rectangle 170" width="1.063" height="15.906" transform="translate(44.666 40.352) rotate(-61.895)" fill="#fff"/>
  </g>
</svg>
